<svg width="24" height="24" viewBox="0 0 24 24" fill="none" xmlns="http://www.w3.org/2000/svg">
<rect x="0.5" y="0.5" width="23" height="23" rx="11.5" fill="black" stroke="#04EE9A"/>
<path d="M16.6278 13.0261C14.4428 13.0261 12.6714 11.2547 12.6714 9.0697C12.6714 7.91935 13.1648 6.88737 13.9488 6.16458C13.1954 5.86003 12.3735 5.68848 11.5111 5.68848C7.9151 5.68848 5 8.60358 5 12.1996C5 15.7956 7.9151 18.7107 11.5111 18.7107C14.9116 18.7107 17.699 16.1035 17.993 12.7794C17.5667 12.9357 17.1079 13.0261 16.6278 13.0261Z" fill="#04EE9A"/>
<path d="M18.2264 11.6964C19.7583 11.0619 20.4858 9.30563 19.8512 7.77373C19.2167 6.24184 17.4604 5.51439 15.9285 6.14894C14.3966 6.78348 13.6692 8.53973 14.3037 10.0716C14.9383 11.6035 16.6945 12.331 18.2264 11.6964Z" fill="#04EE9A"/>
</svg>
