<svg width="24" height="24" viewBox="0 0 24 24" fill="none" xmlns="http://www.w3.org/2000/svg">
<rect x="0.5" y="0.5" width="23" height="23" rx="11.5" fill="black" stroke="#04EE9A"/>
<path d="M10.065 4.1463L9.19727 3H11.1863L10.065 4.1463ZM12.8133 3L13.9143 4.12408L14.7531 3H12.8133H12.8133ZM13.2573 4.36183L12 3.07788L10.7407 4.36344H13.2593L13.2573 4.36183ZM16.19 4.36183L15.35 3.25954L14.5283 4.36344H16.192L16.19 4.36183ZM8.60956 3.27447L7.80232 4.36426H9.43659L8.60956 3.27447ZM10.4404 4.99791L12 9.28116L13.5608 4.99791H10.4392H10.4404ZM7.82654 4.99791L11.0555 8.53527L9.76393 4.99791H7.82654ZM16.1759 4.99791H14.2385L12.9497 8.53527L16.1759 4.99791ZM15.4808 6.71777L14.4427 7.85517C15.3622 8.31084 16.1363 9.01414 16.6777 9.88589C17.2191 10.7576 17.5065 11.7632 17.5074 12.7894C17.5066 15.8255 15.0364 18.2972 12 18.2972C8.96356 18.2972 6.49337 15.8271 6.49337 12.7906C6.49426 11.7644 6.78161 10.7588 7.32307 9.88706C7.86452 9.01531 8.63858 8.31201 9.55809 7.85635L8.51996 6.71895C7.45114 7.33178 6.56289 8.21572 5.94487 9.28155C5.32685 10.3474 5.00093 11.5574 5 12.7894C4.99996 16.6489 8.1401 19.7906 12 19.7906C15.8598 19.7906 19 16.6505 19 12.7906C18.9994 11.5581 18.6737 10.3476 18.0555 9.28132C17.4374 8.21503 16.5489 7.33075 15.4796 6.71777H15.4808Z" fill="#04EE9A"/>
</svg>
