<svg width="24" height="24" viewBox="0 0 24 24" fill="none" xmlns="http://www.w3.org/2000/svg">
<rect x="0.5" y="0.5" width="23" height="23" rx="11.5" fill="black" stroke="#04EE9A"/>
<path d="M8.62724 5C8.37681 5.00239 8.08463 5.01014 7.84612 5.05814C7.70003 5.08735 7.58077 5.13267 7.52413 5.17322C7.48835 5.19707 7.47643 5.20959 7.47046 5.22301L8.17407 6.98769C8.17407 6.9865 8.17705 6.98501 8.17705 6.98382C8.3291 6.76558 8.52289 6.58401 8.79122 6.58401H9.41731L8.62724 5ZM15.3294 5L14.5393 6.58401H15.1654C15.4367 6.58401 15.6275 6.76945 15.7796 6.99097L16.4862 5.22301C16.4802 5.20959 16.4683 5.19707 16.4325 5.17322C16.3759 5.13267 16.2566 5.08735 16.1105 5.05814C15.872 5.01014 15.5798 5.00298 15.3294 5ZM11.9783 5.38907C11.0481 5.38907 10.115 5.87683 10.115 6.85234H10.6516C10.6516 5.61745 13.305 5.61745 13.305 6.85234H13.8417C13.8417 5.87683 12.9085 5.38907 11.9783 5.38907ZM8.79122 7.12066C8.79122 7.12066 8.72265 7.13885 8.6183 7.29209C8.51097 7.44116 8.38873 7.69458 8.27246 8.02253C8.03991 8.67844 7.8163 9.63546 7.6255 10.7565C7.25014 12.9836 7.00328 15.8755 7 18.4991C7.03995 18.526 7.13297 18.5707 7.26177 18.6094C7.52115 18.6899 7.92065 18.7645 8.40364 18.8241C9.36961 18.9404 10.6755 19 11.9783 19C13.2812 19 14.587 18.9404 15.553 18.8241C16.036 18.7645 16.4355 18.6899 16.6949 18.6094C16.8231 18.5707 16.9155 18.526 16.9572 18.4991C16.9543 15.962 16.7068 13.073 16.3311 10.8221C16.1403 9.68913 15.9167 8.71719 15.6842 8.04638C15.5649 7.71247 15.4457 7.45309 15.3383 7.29507C15.231 7.13915 15.1595 7.12066 15.1654 7.12066H8.79122ZM11.9783 7.78998C12.667 7.78998 13.3557 7.91222 13.9222 8.1716C14.4916 8.43098 14.9567 8.84539 15.0998 9.42378L15.1028 9.42676L16.036 13.4904H7.92065L8.85383 9.42676L8.85681 9.42378C8.99992 8.84539 9.46501 8.43098 10.0345 8.1716C10.6009 7.91222 11.2896 7.78998 11.9783 7.78998ZM11.9783 8.32663C11.3552 8.32663 10.7321 8.44291 10.2551 8.66055C9.78104 8.87819 9.47097 9.17931 9.37557 9.55198L8.59445 12.9537H15.3622L14.5811 9.55198C14.4857 9.17931 14.1756 8.87819 13.7016 8.66055C13.2245 8.44291 12.6014 8.32663 11.9783 8.32663ZM10.0702 9.69807H13.8864V10.2347H11.2926V11.0278H10.756V10.2347H10.0702V9.69807ZM7.98922 14.2834H8.52587C8.52587 15.3239 8.66302 16.0872 8.89557 16.5553C9.1311 17.0204 9.41135 17.2022 9.85259 17.2022H14.1041C14.5453 17.2022 14.8255 17.0204 15.0611 16.5553C15.2936 16.0872 15.4308 15.3239 15.4308 14.2834H15.9674C15.9674 15.3687 15.8362 16.2005 15.5381 16.7938C15.24 17.3901 14.7242 17.7389 14.1041 17.7389H9.85259C9.23246 17.7389 8.71668 17.3901 8.41854 16.7938C8.12041 16.2005 7.98922 15.3687 7.98922 14.2834Z" fill="#04EE9A"/>
</svg>
