<svg width="24" height="24" viewBox="0 0 24 24" fill="none" xmlns="http://www.w3.org/2000/svg">
<rect x="0.5" y="0.5" width="23" height="23" rx="11.5" fill="black" stroke="#04EE9A"/>
<g clip-path="url(#clip0_655_145)">
<path d="M9.42973 5.97754L6.84602 6.71855C6.51652 6.89082 6.20426 7.37207 5.99809 7.98594C5.83211 8.48359 5.73504 9.04961 5.69922 9.58008L8.73793 8.0625L9.42973 5.97754ZM14.5704 5.98027L15.2649 8.0625L18.3 9.58281C18.2645 9.05508 18.1661 8.48359 18.002 7.98867C17.8461 7.52246 17.6301 7.13145 17.3868 6.89355C17.3129 6.81699 17.2364 6.75957 17.1571 6.71855L14.5704 5.98027ZM9.84262 6.29473L9.13988 8.4125L6.59965 9.68125L6.98465 11.1441L9.41332 12.3582L12 11.9234L14.5868 12.3582L17.0149 11.1441L17.4004 9.68125L14.8629 8.4125L14.1575 6.29746H13.8704L12.2489 8.31953L12.2461 9.99023H11.7512L11.7539 8.32227L10.1325 6.29473H9.84262ZM7.15063 11.773L7.75355 14.0672L11.7512 12.8695V12.4676L9.33402 12.8695L7.15063 11.773ZM16.8508 11.773L14.6633 12.8695L12.2461 12.4676V12.8695L16.2465 14.0672L16.8508 11.773ZM11.7512 13.3781L10.8871 13.6406L9.92738 15.5602L11.7512 14.6496V13.3781ZM12.2461 13.3781V14.6496L14.0754 15.5629L13.1129 13.6406L12.2461 13.3781ZM10.2418 13.832L7.87934 14.543L8.57113 17.1762L10.2418 13.832ZM13.7582 13.8348L15.4289 17.1734L16.1207 14.543L13.7582 13.8348ZM12.2461 15.202L12.2489 16.3832L15.0024 17.4168L14.4446 16.3012L12.2461 15.202ZM11.7512 15.202L9.55824 16.2984L8.9977 17.4168L11.7539 16.3832L11.7512 15.202ZM11.7539 16.9082L9.5227 17.7449L11.7539 18.0238V16.9082ZM12.2489 16.9082V18.0211L14.4829 17.7422L12.2489 16.9082Z" fill="#04EE9A"/>
</g>
<defs>
<clipPath id="clip0_655_145">
<rect width="14" height="14" fill="white" transform="translate(5 5)"/>
</clipPath>
</defs>
</svg>
