<svg width="24" height="24" viewBox="0 0 24 24" fill="none" xmlns="http://www.w3.org/2000/svg">
<rect x="0.5" y="0.5" width="23" height="23" rx="11.5" fill="black" stroke="#04EE9A"/>
<path d="M16.4625 14.1289C16.9476 13.189 17.0221 12.0756 16.8339 11.0347C16.6456 9.99379 16.2097 9.01369 15.7152 8.07855C15.7802 8.82645 15.8395 9.59127 15.7543 10.3318C15.7152 10.1541 15.6602 9.98003 15.5872 9.81236C15.3613 9.29402 14.9826 8.8603 14.6161 8.42975C14.0797 7.80033 13.5513 7.1524 13.1927 6.40714C12.8341 5.66188 12.6548 4.80344 12.8505 4C12.4945 4.65481 12.1835 5.35458 11.9841 6.07445C11.7842 5.35458 11.4737 4.65534 11.1178 4C11.3135 4.80344 11.1341 5.66241 10.7755 6.40714C10.4169 7.15187 9.88853 7.80033 9.3522 8.42975C8.98565 8.85977 8.60694 9.29402 8.38109 9.81236C8.31974 9.95306 8.27266 10.099 8.23564 10.2471C8.16423 9.53309 8.22136 8.79789 8.28377 8.07855C7.78922 9.01369 7.35339 9.99379 7.16509 11.0347C6.97679 12.0756 7.05137 13.189 7.5364 14.1289C6.65362 13.1367 5.32813 12.5543 4 12.5755C4.89864 13.1594 5.65342 13.9623 6.18023 14.8953C6.55101 15.5517 6.81653 16.278 7.30949 16.8481C7.58453 17.166 7.92251 17.421 8.28483 17.6362C8.28588 17.7346 8.30069 17.8325 8.3319 17.9266C8.45408 18.2984 8.78625 18.5624 9.13217 18.7464C9.47755 18.9305 9.85415 19.059 10.1773 19.2801C10.6327 19.5922 10.9591 20.0873 11.0664 20.6289C11.0384 20.1687 11.2812 19.7414 11.4065 19.2981C11.4753 19.0538 11.5065 18.7999 11.5028 18.5465C11.6689 18.5455 11.835 18.5386 12 18.5211C12.165 18.5386 12.3311 18.5455 12.4972 18.5465C12.4935 18.7999 12.5247 19.0543 12.5935 19.2981C12.7183 19.7419 12.9611 20.1693 12.9336 20.6289C13.0409 20.0873 13.3673 19.5922 13.8227 19.2801C14.1459 19.0585 14.5219 18.9305 14.8673 18.7464C15.2127 18.5624 15.5449 18.2984 15.6676 17.9266C15.6988 17.8325 15.7131 17.7346 15.7146 17.6362C16.077 17.421 16.4149 17.166 16.69 16.8481C17.1829 16.278 17.4485 15.5517 17.8192 14.8953C18.3466 13.9623 19.1014 13.1594 20 12.5755C18.6713 12.5548 17.3453 13.1372 16.4625 14.1289ZM11.9995 16.2753C11.6879 16.2753 11.3981 16.1849 11.1521 16.0309C10.9205 16.0087 10.6089 15.9447 10.2688 15.7913C9.91127 15.63 9.5918 15.3518 9.45481 14.9842C9.30989 14.5954 9.38499 14.1517 9.56906 13.7798C9.75365 13.4085 10.0382 13.0975 10.3275 12.8003C10.6809 12.4374 10.7872 12.357 10.9263 12.1063C11.1077 11.7789 11.1516 11.4557 11.1611 11.2378C11.1553 10.9707 11.1849 11.7726 11.1664 12.0391C11.141 12.4062 11.0664 12.6839 11.0331 12.7982C10.9395 13.1192 10.8813 13.1388 10.794 13.3974C10.7565 13.509 10.7322 13.6175 10.7126 13.7238C11.004 13.3297 11.4711 13.0732 11.9989 13.0732C12.5268 13.0732 12.9933 13.3297 13.2853 13.7238C13.2662 13.6175 13.2419 13.509 13.2038 13.3974C13.1166 13.1388 13.0584 13.1192 12.9648 12.7982C12.9314 12.6839 12.8569 12.4067 12.8315 12.0391C12.813 11.7726 12.8426 10.9707 12.8368 11.2378C12.8463 11.4557 12.8902 11.7789 13.0716 12.1063C13.2107 12.357 13.317 12.4374 13.6703 12.8003C13.9597 13.0975 14.2442 13.4085 14.4288 13.7798C14.6134 14.1511 14.688 14.5954 14.5431 14.9842C14.4061 15.3518 14.0866 15.63 13.7291 15.7913C13.389 15.9447 13.0774 16.0087 12.8458 16.0309C12.6003 16.1849 12.311 16.2753 11.9995 16.2753Z" fill="#04EE9A"/>
</svg>
