<svg width="16" height="17" viewBox="0 0 16 17" fill="none" xmlns="http://www.w3.org/2000/svg">
<path d="M12.1775 7.87527L8.33224 9.66323L8.33969 16.0749L15.7272 8.40332L12.6857 7.64077L12.1775 7.87527ZM11.7322 11.6732L11.5243 12.1871L9.82493 11.874L10 11.4254C10.1656 11.303 10.3233 11.1704 10.4724 11.0283C10.6799 10.8383 10.8735 10.6336 11.0516 10.4158C11.2118 10.2162 11.359 10.0065 11.4923 9.78794C11.6214 9.58869 11.7327 9.37844 11.8249 9.15965L12.3168 9.24741C12.0984 9.76799 11.7446 10.2858 11.2553 10.8008C10.9454 11.1188 10.7048 11.336 10.5335 11.4524L11.7322 11.6732ZM3.301 7.63371L0.33925 8.39461L7.66692 16.0832V9.66319L3.82283 7.87527L3.301 7.63371ZM3.97045 9.41167C4.12068 9.38416 4.2752 9.39128 4.42227 9.43249C4.56933 9.4737 4.70506 9.54792 4.81911 9.64949C4.97738 9.79115 5.11015 9.95894 5.21161 10.1455L4.75426 10.2391C4.70571 10.1436 4.6421 10.0566 4.56587 9.98129C4.44502 9.86764 4.31376 9.82273 4.17212 9.84658L4.15509 9.8499C4.1135 9.85642 4.07456 9.87444 4.04267 9.90192C4.01078 9.9294 3.9872 9.96524 3.97461 10.0054C3.94468 10.0886 3.96629 10.1996 4.0374 10.3331C4.1325 10.5102 4.25849 10.6154 4.41536 10.6487C4.51476 10.6644 4.6162 10.662 4.71475 10.6416L4.78003 10.6295L4.9825 11.0079C4.83337 11.0412 4.73745 11.0794 4.69475 11.1227C4.61993 11.1959 4.62493 11.3116 4.70975 11.4699C4.75832 11.5657 4.83187 11.6465 4.92264 11.704C4.99897 11.7535 5.0911 11.7726 5.18085 11.7576L5.19539 11.7547C5.30627 11.7322 5.36546 11.6768 5.37297 11.5884C5.3821 11.4985 5.35007 11.3876 5.27689 11.2557L5.70974 11.1668C5.77331 11.2913 5.82149 11.4231 5.85319 11.5593C5.87195 11.6688 5.86426 11.7813 5.83075 11.8873C5.80404 11.9625 5.75591 12.0283 5.69229 12.0765C5.60835 12.1347 5.51246 12.1733 5.41164 12.1896L5.37003 12.1971C5.16131 12.2327 4.94667 12.1995 4.75838 12.1027C4.5457 11.9949 4.37273 11.8224 4.26442 11.61C4.17988 11.4517 4.14953 11.3097 4.17337 11.1838C4.18229 11.1178 4.21337 11.0568 4.26152 11.0108H4.25903C4.21605 11.018 4.13401 10.9889 4.01289 10.9235C3.81843 10.8136 3.6612 10.6481 3.56131 10.4483C3.43905 10.2207 3.4008 10.0063 3.44655 9.805C3.49229 9.60375 3.65167 9.47556 3.92471 9.42041L3.97045 9.41167ZM0 7.79212L3.80332 3.72556C3.81991 3.7239 3.83663 3.7239 3.85321 3.72556H3.8586C3.93179 3.7336 3.96491 3.77684 3.95797 3.85528C3.94168 3.95723 3.90228 4.0541 3.8428 4.13848C3.75248 4.27941 3.63722 4.4027 3.50267 4.50228C3.41149 4.57076 3.23616 4.68164 2.97668 4.83492C2.67842 5.00985 2.45058 5.18199 2.29315 5.35133C2.14238 5.50628 2.00753 5.67596 1.89061 5.85781L3.04115 5.9892L3.32722 5.53597L2.59415 5.45283C2.64574 5.40361 2.70138 5.35882 2.76047 5.31892C2.81592 5.28151 2.91433 5.22178 3.0557 5.13973L3.28023 5.00872C3.43894 4.91926 3.58985 4.81662 3.73137 4.70188C3.90251 4.55769 4.05009 4.38765 4.16876 4.19792C4.32819 3.94511 4.40388 3.73583 4.39581 3.57008C4.38917 3.43201 4.32221 3.34513 4.19708 3.30768L6.98709 0.33016L3.41743 6.60875L3.21786 6.96048L0 7.79212ZM12.8399 5.27567C12.7509 5.14845 12.7071 5.04921 12.7085 4.97795C12.7085 4.90687 12.7501 4.8661 12.8333 4.8574H12.8532C12.9399 4.85774 13.0244 4.88521 13.0948 4.93596C13.2031 5.0116 13.2961 5.10712 13.3688 5.21745C13.4547 5.34052 13.498 5.43839 13.4985 5.51104C13.4985 5.58422 13.457 5.62495 13.3763 5.63576H13.3555C13.2676 5.63477 13.1824 5.60563 13.1123 5.55261C13.005 5.47856 12.9126 5.38505 12.8399 5.27693V5.27567ZM9.01455 0.327642L11.9497 3.46155H11.9081C11.8948 3.46155 11.874 3.46155 11.8569 3.4653C11.6745 3.48609 11.5775 3.56606 11.5659 3.70521C11.5542 3.84437 11.6129 4.00458 11.7418 4.18586C11.8081 4.27837 11.8827 4.36466 11.9647 4.44368C12.069 4.54278 12.1888 4.62423 12.3193 4.68482C12.27 4.75218 12.2618 4.84519 12.2948 4.96383C12.338 5.10322 12.4044 5.23436 12.491 5.35178C12.6332 5.5572 12.814 5.73302 13.0233 5.86945C13.212 5.99224 13.3993 6.04976 13.585 6.042C13.6039 6.042 13.6227 6.04048 13.6416 6.03745C13.8461 6.01442 13.9537 5.92267 13.9642 5.76218C13.9675 5.70513 13.962 5.64792 13.948 5.59251L16 7.78422L12.7983 6.98213L12.5851 6.60791L9.01455 0.327642ZM12.4487 3.99625L12.5343 4.08775C12.5501 4.10768 12.5659 4.12932 12.5817 4.15012C12.6449 4.24075 12.6769 4.31644 12.6769 4.3784C12.6769 4.44032 12.6407 4.47567 12.5676 4.48399H12.5497C12.4734 4.48422 12.3991 4.46036 12.3372 4.41581C12.2519 4.35899 12.1785 4.28611 12.121 4.20124C12.052 4.10229 12.0183 4.02286 12.0204 3.963C12.0225 3.90311 12.0594 3.8686 12.1318 3.86031H12.1501C12.2252 3.85969 12.2987 3.88267 12.3601 3.92601C12.3915 3.94689 12.4211 3.9704 12.4486 3.99628L12.4487 3.99625ZM7.99953 0L3.85528 7.16841L7.99956 9.09315L12.1464 7.16841L7.99953 0ZM7.95792 7.28858C7.54934 7.28858 7.26287 7.14555 7.09852 6.85948C6.93412 6.5734 6.85192 6.16564 6.85192 5.63617C6.85192 5.10673 6.93411 4.69828 7.09849 4.41081C7.26286 4.12337 7.54935 3.9795 7.95796 3.97922C8.36656 3.97922 8.65305 4.12295 8.81743 4.41039C8.9818 4.69786 9.06399 5.10632 9.06399 5.63576C9.06399 6.16522 8.9818 6.57298 8.81743 6.85906C8.65303 7.14513 8.36654 7.2883 7.95796 7.28858H7.95792ZM8.32637 4.77796C8.38457 4.96369 8.41367 5.24976 8.41367 5.63617C8.41367 6.00485 8.38457 6.2869 8.32637 6.48232C8.26814 6.67775 8.14534 6.77477 7.95796 6.7734C7.77055 6.7734 7.64664 6.67637 7.58622 6.48232C7.52578 6.2883 7.49556 6.00626 7.49556 5.63621C7.49556 5.24977 7.52578 4.96369 7.58622 4.77796C7.64667 4.59224 7.77058 4.49937 7.95796 4.49937C8.14478 4.49909 8.2673 4.59182 8.32553 4.77754L8.32637 4.77796Z" fill="white"/>
</svg>
