<svg width="16" height="17" viewBox="0 0 16 17" fill="none" xmlns="http://www.w3.org/2000/svg">
<path d="M12.1775 8.56912L8.33224 10.3571L8.33969 16.7687L15.7272 9.09717L12.6857 8.33462L12.1775 8.56912ZM11.7322 12.3671L11.5243 12.881L9.82493 12.5679L10 12.1192C10.1656 11.9968 10.3233 11.8642 10.4724 11.7221C10.6799 11.5322 10.8735 11.3275 11.0516 11.1097C11.2118 10.9101 11.359 10.7003 11.4923 10.4818C11.6214 10.2825 11.7327 10.0723 11.8249 9.8535L12.3168 9.94126C12.0984 10.4618 11.7446 10.9796 11.2553 11.4947C10.9454 11.8126 10.7048 12.0298 10.5335 12.1463L11.7322 12.3671ZM3.301 8.32755L0.33925 9.08846L7.66692 16.777V10.357L3.82283 8.56912L3.301 8.32755ZM3.97045 10.1055C4.12068 10.078 4.2752 10.0851 4.42227 10.1263C4.56933 10.1675 4.70506 10.2418 4.81911 10.3433C4.97738 10.485 5.11015 10.6528 5.21161 10.8394L4.75426 10.933C4.70571 10.8375 4.6421 10.7504 4.56587 10.6751C4.44502 10.5615 4.31376 10.5166 4.17212 10.5404L4.15509 10.5437C4.1135 10.5503 4.07456 10.5683 4.04267 10.5958C4.01078 10.6232 3.9872 10.6591 3.97461 10.6993C3.94468 10.7824 3.96629 10.8934 4.0374 11.0269C4.1325 11.2041 4.25849 11.3093 4.41536 11.3425C4.51476 11.3583 4.6162 11.3559 4.71475 11.3354L4.78003 11.3234L4.9825 11.7018C4.83337 11.735 4.73745 11.7733 4.69475 11.8165C4.61993 11.8897 4.62493 12.0054 4.70975 12.1637C4.75832 12.2595 4.83187 12.3404 4.92264 12.3978C4.99897 12.4474 5.0911 12.4665 5.18085 12.4515L5.19539 12.4486C5.30627 12.4261 5.36546 12.3706 5.37297 12.2822C5.3821 12.1924 5.35007 12.0814 5.27689 11.9496L5.70974 11.8606C5.77331 11.9851 5.82149 12.1169 5.85319 12.2531C5.87195 12.3627 5.86426 12.4752 5.83075 12.5812C5.80404 12.6564 5.75591 12.7221 5.69229 12.7704C5.60835 12.8285 5.51246 12.8672 5.41164 12.8835L5.37003 12.8909C5.16131 12.9265 4.94667 12.8934 4.75838 12.7965C4.5457 12.6888 4.37273 12.5162 4.26442 12.3038C4.17988 12.1456 4.14953 12.0035 4.17337 11.8776C4.18229 11.8117 4.21337 11.7507 4.26152 11.7047H4.25903C4.21605 11.7119 4.13401 11.6828 4.01289 11.6174C3.81843 11.5074 3.6612 11.3419 3.56131 11.1421C3.43905 10.9145 3.4008 10.7001 3.44655 10.4989C3.49229 10.2976 3.65167 10.1694 3.92471 10.1143L3.97045 10.1055ZM0 8.48597L3.80332 4.41941C3.81991 4.41774 3.83663 4.41774 3.85321 4.41941H3.8586C3.93179 4.42745 3.96491 4.47069 3.95797 4.54913C3.94168 4.65107 3.90228 4.74795 3.8428 4.83233C3.75248 4.97326 3.63722 5.09654 3.50267 5.19612C3.41149 5.2646 3.23616 5.37549 2.97668 5.52877C2.67842 5.7037 2.45058 5.87584 2.29315 6.04518C2.14238 6.20013 2.00753 6.3698 1.89061 6.55166L3.04115 6.68305L3.32722 6.22982L2.59415 6.14667C2.64574 6.09746 2.70138 6.05267 2.76047 6.01276C2.81592 5.97535 2.91433 5.91562 3.0557 5.83358L3.28023 5.70257C3.43894 5.61311 3.58985 5.51047 3.73137 5.39573C3.90251 5.25154 4.05009 5.0815 4.16876 4.89177C4.32819 4.63896 4.40388 4.42968 4.39581 4.26393C4.38917 4.12586 4.32221 4.03897 4.19708 4.00153L6.98709 1.02401L3.41743 7.3026L3.21786 7.65433L0 8.48597ZM12.8399 5.96951C12.7509 5.84229 12.7071 5.74306 12.7085 5.6718C12.7085 5.60072 12.7501 5.55995 12.8333 5.55125H12.8532C12.9399 5.55159 13.0244 5.57906 13.0948 5.62981C13.2031 5.70545 13.2961 5.80097 13.3688 5.9113C13.4547 6.03437 13.498 6.13223 13.4985 6.20489C13.4985 6.27807 13.457 6.3188 13.3763 6.3296H13.3555C13.2676 6.32862 13.1824 6.29948 13.1123 6.24646C13.005 6.17241 12.9126 6.0789 12.8399 5.97077V5.96951ZM9.01455 1.02149L11.9497 4.1554H11.9081C11.8948 4.1554 11.874 4.1554 11.8569 4.15914C11.6745 4.17993 11.5775 4.25991 11.5659 4.39906C11.5542 4.53822 11.6129 4.69843 11.7418 4.8797C11.8081 4.97221 11.8827 5.05851 11.9647 5.13752C12.069 5.23663 12.1888 5.31808 12.3193 5.37867C12.27 5.44603 12.2618 5.53903 12.2948 5.65768C12.338 5.79707 12.4044 5.92821 12.491 6.04563C12.6332 6.25105 12.814 6.42687 13.0233 6.5633C13.212 6.68609 13.3993 6.7436 13.585 6.73584C13.6039 6.73584 13.6227 6.73433 13.6416 6.7313C13.8461 6.70827 13.9537 6.61651 13.9642 6.45603C13.9675 6.39898 13.962 6.34176 13.948 6.28635L16 8.47807L12.7983 7.67597L12.5851 7.30176L9.01455 1.02149ZM12.4487 4.6901L12.5343 4.7816C12.5501 4.80153 12.5659 4.82317 12.5817 4.84397C12.6449 4.9346 12.6769 5.01029 12.6769 5.07225C12.6769 5.13417 12.6407 5.16952 12.5676 5.17784H12.5497C12.4734 5.17807 12.3991 5.15421 12.3372 5.10966C12.2519 5.05284 12.1785 4.97996 12.121 4.89509C12.052 4.79614 12.0183 4.7167 12.0204 4.65685C12.0225 4.59696 12.0594 4.56245 12.1318 4.55416H12.1501C12.2252 4.55354 12.2987 4.57651 12.3601 4.61986C12.3915 4.64074 12.4211 4.66425 12.4486 4.69013L12.4487 4.6901ZM7.99953 0.693848L3.85528 7.86226L7.99956 9.787L12.1464 7.86226L7.99953 0.693848ZM7.95792 7.98243C7.54934 7.98243 7.26287 7.83939 7.09852 7.55332C6.93412 7.26725 6.85192 6.85949 6.85192 6.33002C6.85192 5.80058 6.93411 5.39213 7.09849 5.10466C7.26286 4.81721 7.54935 4.67335 7.95796 4.67307C8.36656 4.67307 8.65305 4.81679 8.81743 5.10424C8.9818 5.39171 9.06399 5.80016 9.06399 6.3296C9.06399 6.85907 8.9818 7.26683 8.81743 7.5529C8.65303 7.83897 8.36654 7.98215 7.95796 7.98243H7.95792ZM8.32637 5.47181C8.38457 5.65754 8.41367 5.94361 8.41367 6.33002C8.41367 6.6987 8.38457 6.98075 8.32637 7.17617C8.26814 7.37159 8.14534 7.46862 7.95796 7.46724C7.77055 7.46724 7.64664 7.37022 7.58622 7.17617C7.52578 6.98215 7.49556 6.70011 7.49556 6.33006C7.49556 5.94362 7.52578 5.65754 7.58622 5.47181C7.64667 5.28608 7.77058 5.19322 7.95796 5.19322C8.14478 5.19294 8.2673 5.28566 8.32553 5.47139L8.32637 5.47181Z" fill="black"/>
</svg>
