<svg width="16" height="17" viewBox="0 0 16 17" fill="none" xmlns="http://www.w3.org/2000/svg">
<path d="M15.7668 5.36116L12.9474 1.4786L8.38516 0V3.70608L12.2405 6.50732L15.7668 5.36116ZM12.1084 4.22452C12.085 4.31927 12.0442 4.40887 11.9882 4.48876C11.933 4.56598 11.8618 4.63043 11.7795 4.67775C11.6972 4.72507 11.6058 4.75416 11.5112 4.76304C11.31 4.78752 11.1002 4.72011 10.8821 4.5608C10.6639 4.40149 10.536 4.22231 10.4981 4.02324C10.4781 3.93065 10.4782 3.83484 10.4984 3.74228C10.5185 3.64972 10.5583 3.56256 10.615 3.48668C10.6741 3.40908 10.747 3.34308 10.8301 3.29204C10.9214 3.23321 11.0417 3.21223 11.1912 3.22908C11.1288 3.09958 11.105 2.9549 11.1225 2.81224C11.142 2.66995 11.1974 2.53499 11.2837 2.42016C11.3469 2.33117 11.4284 2.25666 11.5226 2.20155C11.6169 2.14645 11.7218 2.11203 11.8303 2.10056C12.0605 2.07101 12.2976 2.14528 12.5415 2.32336C12.7854 2.50141 12.9231 2.70077 12.9545 2.92144C12.9712 3.02789 12.9662 3.13662 12.9399 3.24112C12.9136 3.34561 12.8665 3.44373 12.8014 3.5296C12.7182 3.6469 12.6059 3.74058 12.4756 3.80148C12.3487 3.86063 12.206 3.87734 12.0688 3.84916C12.1232 3.99479 12.1363 4.11991 12.1084 4.22452ZM11.6791 3.89304C11.6848 3.9368 11.6816 3.98125 11.6699 4.02378C11.6581 4.0663 11.6379 4.10602 11.6104 4.1406C11.5684 4.1933 11.5122 4.23298 11.4485 4.25502C11.3848 4.27707 11.3161 4.28058 11.2504 4.26514C11.1848 4.2497 11.1249 4.21595 11.0777 4.16781C11.0304 4.11968 10.9979 4.05913 10.9837 3.9932C10.9788 3.9478 10.983 3.90189 10.9961 3.85815C11.0092 3.81441 11.0309 3.77374 11.06 3.73852C11.0843 3.70177 11.1157 3.67021 11.1523 3.64564C11.1889 3.62108 11.23 3.604 11.2732 3.5954C11.3189 3.58883 11.3655 3.59194 11.41 3.60451C11.4544 3.61709 11.4957 3.63885 11.5312 3.6684C11.5706 3.69335 11.6043 3.72628 11.6302 3.76505C11.6561 3.80382 11.6736 3.84758 11.6815 3.89352L11.6791 3.89304ZM12.0607 3.42224C11.9567 3.43196 11.8527 3.40341 11.7683 3.34196C11.6838 3.2805 11.6246 3.19035 11.6018 3.0884C11.5872 2.98949 11.6206 2.88424 11.702 2.77264C11.7624 2.67673 11.8579 2.60825 11.9682 2.58184C12.0731 2.57153 12.1782 2.6002 12.2633 2.66239C12.3485 2.72458 12.4078 2.81594 12.4299 2.91904C12.4387 3.03161 12.4032 3.14316 12.3311 3.23004C12.2526 3.34199 12.1639 3.40607 12.065 3.42228L12.0607 3.42224ZM7.622 3.70608V0L3.05976 1.4786L0.2404 5.36116L3.76664 6.50588L7.622 3.70608ZM3.1156 2.83416L4.6314 1.77336C4.73473 1.92556 4.80373 2.09841 4.83364 2.27992C4.87497 2.47072 4.83777 2.72956 4.72204 3.05644C4.64929 3.24534 4.59124 3.43957 4.5484 3.6374C4.52193 3.78092 4.55293 3.92909 4.63472 4.04996C4.691 4.13671 4.77671 4.20023 4.87608 4.22884C4.92543 4.24079 4.97685 4.24134 5.02644 4.23043C5.07602 4.21952 5.12247 4.19744 5.16224 4.16588C5.29453 4.07335 5.35003 3.96095 5.32872 3.82868C5.30081 3.71862 5.25226 3.61486 5.18564 3.52292L5.60872 3.2272C5.73336 3.42053 5.80569 3.59653 5.82572 3.7552C5.8642 4.05728 5.73511 4.31167 5.43844 4.51836C5.20407 4.68244 4.97225 4.74795 4.743 4.71488C4.51375 4.68181 4.32423 4.55859 4.17444 4.3452C4.0618 4.18863 4.0058 3.99839 4.01564 3.80576C4.03241 3.63302 4.07435 3.46365 4.14012 3.30304L4.22788 3.0574C4.28289 2.9038 4.31835 2.79553 4.33424 2.7326C4.35014 2.67033 4.35594 2.60591 4.35144 2.5418L3.38504 3.21812L3.1156 2.83416ZM5.7036 11.4506H10.3035L11.7239 7.07584L8.00356 4.37192L4.2832 7.07588L5.7036 11.4506ZM9.27424 7.64776C9.24062 7.6093 9.19863 7.57907 9.1515 7.55939C9.10436 7.53971 9.05334 7.5311 9.00236 7.53424C8.84081 7.53424 8.73095 7.59451 8.67276 7.71504C8.63181 7.82151 8.61158 7.93482 8.61316 8.04888H8.09896C8.10755 7.81901 8.1492 7.63332 8.22392 7.4918C8.36576 7.22215 8.61761 7.08732 8.97948 7.08732C9.26564 7.08732 9.49315 7.16681 9.662 7.3258C9.83085 7.48479 9.91401 7.69323 9.91148 7.95112C9.91385 8.14392 9.85061 8.3318 9.73212 8.48392C9.62079 8.61704 9.49064 8.7332 9.34576 8.82872L9.13304 8.97948C8.99981 9.07487 8.90872 9.14323 8.85976 9.18456C8.81076 9.22669 8.76889 9.27647 8.73576 9.33196H9.91528V9.79936H8.067C8.06971 9.61545 8.11236 9.43432 8.192 9.26852C8.26768 9.08852 8.44653 8.89772 8.72856 8.69612C8.897 8.58313 9.05647 8.45732 9.20556 8.3198C9.3095 8.21745 9.36911 8.07838 9.37156 7.93252C9.37465 7.82882 9.34008 7.7275 9.27424 7.64732V7.64776ZM6.08996 7.57528C6.20765 7.57299 6.32499 7.56182 6.441 7.54188C6.54042 7.52198 6.63133 7.47204 6.70144 7.3988C6.75101 7.34343 6.78666 7.27703 6.80544 7.20512C6.81673 7.17001 6.82361 7.13364 6.82592 7.09684H7.26952V9.79844H6.72528V7.93632H6.09V7.5748L6.08996 7.57528ZM5.61872 12.2138L3.44136 15.2154L8.00356 16.694L12.5658 15.2154L10.3884 12.2138H5.61872ZM8.70952 15.5655C8.55912 15.7582 8.32556 15.8544 8.00884 15.854C7.66857 15.854 7.41768 15.7117 7.25616 15.4272C7.13056 15.2046 7.06776 14.9184 7.06776 14.5686C7.06568 14.4005 7.07445 14.2324 7.094 14.0654C7.11609 13.8646 7.17752 13.6701 7.2748 13.493C7.34916 13.3654 7.453 13.2575 7.57764 13.1782C7.71228 13.0961 7.86784 13.0547 8.02552 13.059C8.2764 13.059 8.4764 13.1226 8.62552 13.2498C8.69965 13.3142 8.7601 13.3927 8.80328 13.4809C8.84647 13.5691 8.87151 13.665 8.87692 13.763H8.35032C8.34758 13.7115 8.33021 13.6619 8.30024 13.6199C8.27179 13.5781 8.23295 13.5444 8.18754 13.5222C8.14213 13.5 8.09171 13.4899 8.04124 13.493C7.8686 13.493 7.74571 13.5899 7.67256 13.7835C7.62423 13.9369 7.59664 14.096 7.59052 14.2567C7.65182 14.1819 7.7304 14.1231 7.81948 14.0854C7.97014 14.0287 8.13393 14.0166 8.29132 14.0504C8.4487 14.0842 8.59303 14.1626 8.70708 14.2762C8.8631 14.4459 8.94575 14.6703 8.937 14.9006C8.93992 15.1413 8.8603 15.3758 8.7114 15.565L8.70952 15.5655ZM8.28024 14.581C8.35717 14.6649 8.39564 14.7858 8.39564 14.9435C8.40121 15.0669 8.36545 15.1886 8.29404 15.2893C8.26192 15.3325 8.21977 15.3671 8.17124 15.3903C8.12271 15.4135 8.06926 15.4245 8.01552 15.4224C7.95862 15.4236 7.9022 15.4118 7.85054 15.3879C7.79888 15.364 7.75335 15.3287 7.7174 15.2846C7.63739 15.1839 7.59671 15.0576 7.60292 14.9292C7.60292 14.7492 7.65507 14.6188 7.75936 14.5381C7.82713 14.4843 7.91131 14.4553 7.99784 14.4561C8.05157 14.4548 8.10493 14.4653 8.15419 14.4868C8.20346 14.5083 8.24744 14.5403 8.28308 14.5805L8.28024 14.581ZM13.0461 10.0932L14.1613 10.4271L13.9705 11.0734L13.0461 10.0932ZM12.4737 7.23136L11.0013 11.7626L13.1806 14.7623L16 10.8816V6.08712L12.4737 7.23136ZM15.1166 10.7094L14.5596 10.543L14.2533 11.5675L13.8088 11.4349L12.521 10.014L12.6918 9.44164L14.3091 9.92484L14.3964 9.63196L14.7947 9.75076L14.7074 10.0436L15.2645 10.21L15.1166 10.7094ZM3.52624 7.23136L0 6.08664V10.884L2.81936 14.7646L4.99864 11.765L3.52624 7.23136ZM0.6616 9.5566L2.4388 8.9966L2.248 8.39088L2.59284 8.28212C2.63041 8.39369 2.67634 8.50226 2.73024 8.60692C2.77866 8.6956 2.85306 8.76735 2.94344 8.81252C3.01116 8.84319 3.08523 8.85725 3.15948 8.85356C3.19629 8.8538 3.23298 8.84947 3.26872 8.84068L3.4018 9.26372L0.82616 10.0746L0.6616 9.5566ZM1.4004 11.9004L1.2368 11.3815L3.014 10.8215L2.8232 10.2158L3.16808 10.107C3.20566 10.2186 3.25157 10.3272 3.30544 10.4318C3.35384 10.5205 3.42824 10.5923 3.51864 10.6374C3.58636 10.6682 3.66045 10.6822 3.73472 10.6784C3.77151 10.6787 3.80819 10.6744 3.84392 10.6656L3.97704 11.0886L1.4004 11.9004Z" fill="white"/>
</svg>
