<svg width="17" height="18" viewBox="0 0 17 18" fill="none" xmlns="http://www.w3.org/2000/svg">
<path d="M8.07881 0.0983276C7.81883 0.0983276 7.55882 0.156586 7.35744 0.273102L0.927505 3.99252C0.524666 4.22551 0.524666 4.59405 0.927505 4.82708L7.35744 8.54646C7.76028 8.77949 8.39729 8.77949 8.80009 8.54646L15.2301 4.82704C15.6329 4.59409 15.6329 4.22556 15.2301 3.99257L8.80009 0.273102C8.59867 0.156502 8.33874 0.0983276 8.07881 0.0983276ZM7.36287 1.88757L8.32421 2.48838C8.04021 2.53077 7.79442 2.58436 7.58694 2.6491C7.3771 2.71241 7.19664 2.78944 7.04544 2.88015C6.72044 3.07517 6.57862 3.29675 6.62008 3.54494C6.65923 3.79161 6.88203 4.06046 7.28832 4.35146C7.29927 4.20552 7.34966 4.07145 7.43944 3.94934C7.52687 3.82575 7.6566 3.71239 7.82856 3.60922C8.26128 3.34958 8.76553 3.23753 9.3412 3.27331C9.91882 3.30787 10.4596 3.48264 10.9634 3.79759C11.5207 4.14587 11.8193 4.51419 11.8593 4.9026C11.8969 5.28961 11.6663 5.63276 11.1675 5.93213C10.6175 6.26206 9.96386 6.37551 9.20638 6.27246C8.44852 6.16689 7.65042 5.85211 6.8122 5.32825C5.95306 4.7913 5.45433 4.26428 5.31589 3.7472C5.17702 3.22747 5.41472 2.78346 6.02887 2.41493C6.22352 2.29816 6.43104 2.19638 6.65144 2.10962C6.87193 2.02286 7.10905 1.94882 7.36287 1.88757ZM8.99098 4.12824C8.81549 4.12794 8.65541 4.17117 8.51086 4.25789C8.32001 4.37238 8.25303 4.50649 8.3099 4.66009C8.36635 4.81108 8.54664 4.98169 8.85081 5.17179C9.15498 5.36188 9.43087 5.47642 9.67863 5.51553C9.92593 5.55202 10.1451 5.51304 10.3359 5.39851C10.5287 5.28287 10.5968 5.14952 10.5404 4.99849C10.4836 4.84484 10.303 4.67302 9.99884 4.48292C9.69467 4.29282 9.41891 4.17955 9.17161 4.14305C9.11187 4.13346 9.05148 4.1285 8.99098 4.12824ZM15.6626 5.53055C15.581 5.53367 15.4851 5.56667 15.3699 5.63213L9.18478 9.20367C8.78194 9.43633 8.46329 9.98822 8.46329 10.4534V17.0916C8.46329 17.5568 8.78194 17.7407 9.18478 17.5079L15.3699 13.9366C15.7728 13.7039 16.0913 13.1521 16.0913 12.6869V6.04865C15.9862 5.70987 15.8712 5.52268 15.6626 5.53055ZM0.518773 5.55076C0.256654 5.55076 0.0964441 5.77491 0.0913086 6.04852V12.6866C0.0913086 13.1518 0.40996 13.7037 0.812799 13.9364L6.99767 17.508C7.40051 17.7406 7.7192 17.5566 7.7192 17.0915V10.4532C7.7192 9.98805 7.40055 9.43628 6.99771 9.20359L0.812841 5.63204C0.704786 5.57572 0.606118 5.5508 0.518773 5.5508V5.55076ZM2.20653 7.74916L5.07372 9.4695V10.5339L3.12637 9.36548V10.2343C3.21641 10.2577 3.30454 10.288 3.38996 10.3248C3.47983 10.3612 3.57269 10.4082 3.66858 10.4657C4.21382 10.7928 4.6383 11.2193 4.94192 11.7449C5.2455 12.2682 5.3973 12.8357 5.3973 13.4475C5.3973 14.0544 5.23153 14.4301 4.9 14.5747C4.5704 14.7205 4.112 14.6172 3.52479 14.2649C3.27113 14.1127 3.01945 13.9303 2.76979 13.7178C2.52211 13.509 2.27544 13.2683 2.02978 12.9955V11.8558C2.27346 12.1775 2.50418 12.4476 2.72184 12.666C2.94158 12.8856 3.14826 13.0535 3.34202 13.1697C3.62165 13.3375 3.84133 13.3841 4.00112 13.3094C4.16289 13.2335 4.24384 13.0488 4.24384 12.7554C4.24384 12.4595 4.16289 12.1778 4.00112 11.9102C3.84133 11.6438 3.62165 11.4267 3.34202 11.259C3.1755 11.1592 2.99742 11.0801 2.81172 11.0235C2.62398 10.9635 2.42226 10.9252 2.20653 10.9086V7.74916ZM13.5739 7.99044V11.6025L14.1528 11.2551V12.3249L13.5739 12.6723V13.7152L12.5846 14.3088V13.2658L10.7853 14.3454V13.0801L12.4106 8.68836L13.5739 7.99044ZM12.5846 9.79956L11.4376 12.8842L12.5846 12.196V9.79956Z" fill="white"/>
</svg>
