<svg width="16" height="18" viewBox="0 0 16 18" fill="none" xmlns="http://www.w3.org/2000/svg">
<path d="M7.9875 0.0712891C7.72753 0.0712891 7.46751 0.129547 7.26613 0.246063L0.836197 3.96549C0.433358 4.19848 0.433358 4.56701 0.836197 4.80004L7.26613 8.51942C7.66897 8.75245 8.30598 8.75245 8.70878 8.51942L15.1388 4.8C15.5416 4.56705 15.5416 4.19852 15.1388 3.96553L8.70878 0.246063C8.50736 0.129463 8.24743 0.0712891 7.9875 0.0712891ZM7.27156 1.86054L8.23291 2.46134C7.9489 2.50373 7.70311 2.55732 7.49563 2.62206C7.28579 2.68537 7.10534 2.7624 6.95413 2.85311C6.62913 3.04813 6.48731 3.26971 6.52877 3.5179C6.56792 3.76457 6.79073 4.03343 7.19702 4.32442C7.20796 4.17848 7.25835 4.04441 7.34813 3.9223C7.43556 3.79871 7.5653 3.68535 7.73725 3.58218C8.16998 3.32254 8.67422 3.21049 9.2499 3.24627C9.82751 3.28083 10.3682 3.4556 10.8721 3.77055C11.4294 4.11883 11.728 4.48716 11.768 4.87556C11.8056 5.26257 11.575 5.60572 11.0761 5.90509C10.5262 6.23502 9.87255 6.34847 9.11507 6.24542C8.35721 6.13985 7.55911 5.82507 6.72089 5.30121C5.86175 4.76426 5.36302 4.23724 5.22458 3.72016C5.08571 3.20043 5.32341 2.75642 5.93756 2.38789C6.13221 2.27112 6.33973 2.16934 6.56013 2.08258C6.78062 1.99583 7.01774 1.92178 7.27156 1.86054ZM8.89967 4.1012C8.72418 4.1009 8.5641 4.14413 8.41955 4.23085C8.2287 4.34534 8.16172 4.47945 8.21859 4.63305C8.27504 4.78405 8.45533 4.95465 8.7595 5.14475C9.06367 5.33484 9.33956 5.44938 9.58732 5.48849C9.83462 5.52498 10.0538 5.486 10.2446 5.37147C10.4374 5.25583 10.5055 5.12248 10.4491 4.97145C10.3922 4.8178 10.2117 4.64598 9.90753 4.45588C9.60336 4.26578 9.3276 4.15251 9.0803 4.11601C9.02056 4.10642 8.96017 4.10146 8.89967 4.1012ZM15.5713 5.50351C15.4897 5.50663 15.3938 5.53963 15.2786 5.60509L9.09347 9.17663C8.69064 9.40929 8.37198 9.96118 8.37198 10.4264V17.0646C8.37198 17.5297 8.69064 17.7136 9.09347 17.4809L15.2786 13.9095C15.6815 13.6769 16 13.125 16 12.6598V6.02161C15.8949 5.68284 15.7798 5.49564 15.5713 5.50351ZM0.427464 5.52372C0.165345 5.52372 0.00513546 5.74787 0 6.02148V12.6596C0 13.1248 0.318651 13.6767 0.721491 13.9093L6.90636 17.4809C7.3092 17.7135 7.62789 17.5296 7.62789 17.0644V10.4262C7.62789 9.96101 7.30924 9.40925 6.9064 9.17655L0.721533 5.605C0.613477 5.54868 0.514809 5.52376 0.427464 5.52376V5.52372ZM2.11522 7.72212L4.98241 9.44246V10.5069L3.03506 9.33844V10.2073C3.12511 10.2307 3.21323 10.2609 3.29865 10.2978C3.38852 10.3342 3.48138 10.3812 3.57727 10.4387C4.12252 10.7658 4.54699 11.1922 4.85061 11.7179C5.1542 12.2411 5.30599 12.8086 5.30599 13.4205C5.30599 14.0273 5.14022 14.4031 4.80869 14.5477C4.47909 14.6935 4.02069 14.5902 3.43348 14.2378C3.17982 14.0857 2.92814 13.9033 2.67848 13.6908C2.4308 13.482 2.18413 13.2412 1.93847 12.9685V11.8287C2.18215 12.1504 2.41287 12.4206 2.63054 12.6389C2.85027 12.8586 3.05695 13.0264 3.25071 13.1427C3.53034 13.3105 3.75003 13.357 3.90981 13.2824C4.07158 13.2064 4.15253 13.0218 4.15253 12.7284C4.15253 12.4325 4.07158 12.1507 3.90981 11.8832C3.75003 11.6168 3.53034 11.3997 3.25071 11.232C3.0842 11.1321 2.90611 11.0531 2.72041 10.9965C2.53267 10.9365 2.33095 10.8982 2.11522 10.8816V7.72212ZM13.4826 7.9634V11.5754L14.0615 11.2281V12.2979L13.4826 12.6452V13.6882L12.4933 14.2818V13.2388L10.694 14.3184V13.053L12.3193 8.66132L13.4826 7.9634ZM12.4933 9.77252L11.3463 12.8572L12.4933 12.169V9.77252Z" fill="black"/>
</svg>
