<svg width="16" height="20" viewBox="0 0 16 20" fill="none" xmlns="http://www.w3.org/2000/svg">
<path d="M8 0L0.256348 13.3352H15.7437L8 0ZM6.87626 0.54987L0 5.52565V12.3913L6.87626 0.54987ZM9.12365 0.54987L16 12.3913V5.52561L9.12365 0.54987ZM3.36209 4.46378V5.411L2.99313 5.83187V5.09526C2.87261 5.23613 2.74565 5.37209 2.62857 5.51543C2.7823 5.52817 2.73657 5.75152 2.72452 5.85248C2.64861 6.26709 2.37 6.61661 2.14174 6.9303C2.05726 7.04091 1.9703 7.15096 1.88052 7.25669C1.67835 7.40452 1.51139 7.44756 1.41204 7.19309C1.42483 6.85369 1.579 6.53135 1.76187 6.28148L1.99178 5.93722C1.9897 6.04426 1.99613 6.1533 1.98865 6.25917C1.88691 6.44817 1.69448 6.67048 1.7383 6.8943C2.0757 6.9323 2.26961 6.422 2.3697 6.17343C2.40587 6.05343 2.46135 5.93613 2.30804 5.93717V5.62135L3.36209 4.46378ZM12.5851 4.51639L14.5353 6.88439V7.20013L13.2177 5.62143V5.98978L12.9542 5.67404C12.9475 5.49361 12.8923 5.30983 12.8488 5.14783C12.7679 5.02017 12.6766 4.89983 12.5853 4.77956L12.5851 4.51639ZM8.00304 7.24856C8.36696 7.24856 8.64361 7.31509 8.83296 7.448C9.0223 7.57961 9.117 7.773 9.117 8.02817C9.117 8.19878 9.07004 8.34113 8.976 8.45526C8.88339 8.56943 8.7457 8.65404 8.56304 8.70909C8.76713 8.76552 8.92087 8.85756 9.02435 8.98517C9.12904 9.11135 9.18148 9.27109 9.18148 9.46448C9.18148 9.76261 9.08209 9.98826 8.8833 10.1414C8.68591 10.2932 8.39252 10.369 8.00304 10.369C7.61226 10.369 7.31678 10.2931 7.1167 10.1414C6.91791 9.98826 6.81852 9.76261 6.81852 9.46443C6.81852 9.27109 6.87026 9.11139 6.97374 8.98513C7.07843 8.85752 7.23287 8.76548 7.437 8.70904C7.25439 8.65404 7.11674 8.56948 7.02409 8.45526C6.93148 8.34113 6.88504 8.19874 6.88504 8.02822C6.88504 7.77443 6.97983 7.58104 7.16913 7.44809C7.35843 7.31513 7.63644 7.2487 8.00304 7.2487V7.24856ZM8.00304 7.73604C7.87957 7.73604 7.78413 7.7683 7.71696 7.83278C7.65117 7.89722 7.61826 7.98856 7.61826 8.10669C7.61826 8.22626 7.65117 8.31826 7.71696 8.3827C7.78413 8.44717 7.87957 8.47943 8.00304 8.47943C8.12391 8.47943 8.21722 8.44717 8.28304 8.3827C8.34883 8.31826 8.38174 8.22626 8.38174 8.10674C8.38174 7.98717 8.34883 7.89587 8.28304 7.83283C8.21722 7.7683 8.12391 7.73604 8.00304 7.73604ZM8.00304 8.96483C7.858 8.96483 7.74652 9.00448 7.6687 9.08369C7.59074 9.16296 7.55174 9.27643 7.55174 9.42413C7.55174 9.57187 7.59074 9.68535 7.6687 9.76456C7.74652 9.84248 7.858 9.88143 8.00304 9.88143C8.14674 9.88143 8.25683 9.84248 8.33339 9.76461C8.40991 9.6853 8.44817 9.57183 8.44817 9.42409C8.44817 9.27504 8.40991 9.16156 8.33339 9.08365C8.25687 9.00443 8.14674 8.96478 8.00304 8.96478V8.96483ZM0.726087 14.0308L8 19.2943L15.2739 14.0308H0.726087ZM6.78783 15.0408H9.15948V15.2513C8.53313 15.5097 8.22113 15.8121 7.9473 16.3564H7.26209C7.57096 15.7563 7.89452 15.5862 8.42165 15.2513H6.78774L6.78783 15.0408Z" fill="white"/>
</svg>
