<svg width="16" height="21" viewBox="0 0 16 21" fill="none" xmlns="http://www.w3.org/2000/svg">
<path d="M8 0.776855L0.256348 14.1121H15.7437L8 0.776855ZM6.87626 1.32672L0 6.30251V13.1682L6.87626 1.32672ZM9.12365 1.32672L16 13.1682V6.30246L9.12365 1.32672ZM3.36209 5.24064V6.18785L2.99313 6.60872V5.87212C2.87261 6.01299 2.74565 6.14894 2.62857 6.29229C2.7823 6.30503 2.73657 6.52838 2.72452 6.62933C2.64861 7.04394 2.37 7.39346 2.14174 7.70716C2.05726 7.81777 1.9703 7.92781 1.88052 8.03355C1.67835 8.18138 1.51139 8.22442 1.41204 7.96994C1.42483 7.63055 1.579 7.3082 1.76187 7.05833L1.99178 6.71407C1.9897 6.82112 1.99613 6.93016 1.98865 7.03603C1.88691 7.22503 1.69448 7.44733 1.7383 7.67116C2.0757 7.70916 2.26961 7.19885 2.3697 6.95029C2.40587 6.83029 2.46135 6.71299 2.30804 6.71403V6.3982L3.36209 5.24064ZM12.5851 5.29325L14.5353 7.66125V7.97699L13.2177 6.39829V6.76664L12.9542 6.4509C12.9475 6.27046 12.8923 6.08668 12.8488 5.92468C12.7679 5.79703 12.6766 5.67668 12.5853 5.55642L12.5851 5.29325ZM8.00304 8.02542C8.36696 8.02542 8.64361 8.09194 8.83296 8.22486C9.0223 8.35646 9.117 8.54985 9.117 8.80503C9.117 8.97564 9.07004 9.11799 8.976 9.23212C8.88339 9.34629 8.7457 9.4309 8.56304 9.48594C8.76713 9.54238 8.92087 9.63442 9.02435 9.76203C9.12904 9.8882 9.18148 10.0479 9.18148 10.2413C9.18148 10.5395 9.08209 10.7651 8.8833 10.9183C8.68591 11.07 8.39252 11.1458 8.00304 11.1458C7.61226 11.1458 7.31678 11.07 7.1167 10.9182C6.91791 10.7651 6.81852 10.5395 6.81852 10.2413C6.81852 10.0479 6.87026 9.88825 6.97374 9.76198C7.07843 9.63438 7.23287 9.54233 7.437 9.4859C7.25439 9.4309 7.11674 9.34633 7.02409 9.23212C6.93148 9.11799 6.88504 8.97559 6.88504 8.80507C6.88504 8.55129 6.97983 8.3579 7.16913 8.22494C7.35843 8.09199 7.63644 8.02555 8.00304 8.02555V8.02542ZM8.00304 8.5129C7.87957 8.5129 7.78413 8.54516 7.71696 8.60964C7.65117 8.67407 7.61826 8.76542 7.61826 8.88355C7.61826 9.00312 7.65117 9.09512 7.71696 9.15955C7.78413 9.22403 7.87957 9.25629 8.00304 9.25629C8.12391 9.25629 8.21722 9.22403 8.28304 9.15955C8.34883 9.09512 8.38174 9.00312 8.38174 8.88359C8.38174 8.76403 8.34883 8.67272 8.28304 8.60968C8.21722 8.54516 8.12391 8.5129 8.00304 8.5129ZM8.00304 9.74168C7.858 9.74168 7.74652 9.78133 7.6687 9.86055C7.59074 9.93981 7.55174 10.0533 7.55174 10.201C7.55174 10.3487 7.59074 10.4622 7.6687 10.5414C7.74652 10.6193 7.858 10.6583 8.00304 10.6583C8.14674 10.6583 8.25683 10.6193 8.33339 10.5415C8.40991 10.4622 8.44817 10.3487 8.44817 10.2009C8.44817 10.0519 8.40991 9.93842 8.33339 9.86051C8.25687 9.78129 8.14674 9.74164 8.00304 9.74164V9.74168ZM0.726087 14.8077L8 20.0712L15.2739 14.8077H0.726087ZM6.78783 15.8177H9.15948V16.0282C8.53313 16.2866 8.22113 16.5889 7.9473 17.1332H7.26209C7.57096 16.5331 7.89452 16.3631 8.42165 16.0282H6.78774L6.78783 15.8177Z" fill="black"/>
</svg>
