<svg width="24" height="24" viewBox="0 0 24 24" fill="none" xmlns="http://www.w3.org/2000/svg">
<path d="M11.4463 1.02985C16.3073 5.58657 20.0672 10.1378 23.1899 14.2528V8.98388C22.8588 8.68435 22.5263 8.38964 22.1894 8.10056C22.3294 7.93814 22.415 7.72688 22.415 7.4956C22.415 6.98339 21.9999 6.56841 21.4877 6.56841C21.1931 6.56841 20.9311 6.70716 20.7612 6.92138C18.7338 5.30663 16.6227 3.87656 14.4799 2.64113C14.5271 2.54621 14.5546 2.44078 14.5546 2.32763C14.5546 1.93622 14.2372 1.61864 13.8457 1.61864C13.5918 1.61864 13.3703 1.75214 13.2451 1.95267C12.6467 1.63003 12.0466 1.32211 11.4462 1.02985H11.4463ZM4.9043 1.87936C5.14383 2.12203 5.38149 2.36499 5.61774 2.61028C5.41969 2.66527 5.2718 2.81138 5.22657 3.03216C5.14163 3.44672 5.44814 3.96591 5.91211 4.19091C6.08283 4.27369 6.25135 4.30435 6.3999 4.29047C6.28107 4.48313 6.2124 4.71113 6.2124 4.95408C6.2124 5.65205 6.77724 6.2168 7.47521 6.2168C7.88208 6.2168 8.24443 6.02475 8.47566 5.72602C12.6328 10.4698 16.2381 15.4948 19.4986 20.1035C19.1517 20.387 18.9302 20.8174 18.9302 21.3002C18.9302 22.154 19.6219 22.8457 20.4757 22.8457C20.7698 22.8457 21.0443 22.7627 21.2783 22.6201C21.423 22.8242 21.5686 23.0307 21.7119 23.2324H23.19V17.8725C21.2513 14.6277 15.9351 8.80969 14.54 7.8736C15.6715 9.43922 16.654 10.8893 17.5781 12.2813C13.477 7.79297 8.97919 3.86307 4.90425 1.87941L4.9043 1.87936ZM3.58149 2.59421C3.49393 2.59824 3.40636 2.61989 3.32227 2.66011C2.9859 2.82103 2.84349 3.22458 3.00446 3.56105C3.16533 3.89738 3.56883 4.03978 3.9053 3.87886C4.24168 3.71794 4.38408 3.31439 4.22311 2.97792C4.10246 2.72574 3.84432 2.58206 3.58149 2.59421ZM20.2573 3.54928C20.1891 3.55163 20.1233 3.56602 20.0625 3.59466C19.7382 3.74728 19.6751 4.23333 19.9219 4.6801C20.1687 5.12681 20.6318 5.36597 20.9561 5.2133C21.2804 5.06058 21.3435 4.57453 21.0967 4.12781C20.8962 3.76481 20.553 3.53907 20.2573 3.54919L20.2573 3.54928ZM13.1733 5.20163C13.0804 5.20739 12.9931 5.23538 12.9185 5.28506C12.6201 5.48363 12.6294 5.97356 12.939 6.37931C13.2487 6.78502 13.7408 6.95288 14.0392 6.75431C14.3376 6.55575 14.3283 6.06581 14.0186 5.66006C13.7864 5.35575 13.4525 5.18405 13.1735 5.20163H13.1733ZM1.18079 6.9975C5.44725 11.687 8.61966 15.9224 11.1183 19.7285C10.7208 19.6646 10.2537 19.9605 10.1691 20.3657C9.8775 21.7615 10.7736 22.8929 12.4 23.2324H18.2902C13.6977 16.6821 7.28475 9.9691 1.18079 6.9975ZM2.58844 11.7715C2.40999 11.7751 2.25118 11.834 2.14754 11.9517C1.91072 12.2206 2.04675 12.6916 2.45082 13.0034C2.85488 13.3151 3.37411 13.35 3.61097 13.081C3.84779 12.8119 3.71325 12.341 3.30919 12.0293C3.08185 11.8539 2.81794 11.7668 2.58849 11.7714L2.58844 11.7715ZM4.80038 13.5586C4.10241 13.5586 3.53771 14.1233 3.53771 14.8213C3.53771 15.5193 4.10241 16.0854 4.80033 16.0854C5.4983 16.0854 6.06455 15.5192 6.06455 14.8212C6.06455 14.1233 5.49835 13.5586 4.80038 13.5586ZM8.53725 18.4088C8.025 18.4088 7.60997 18.8237 7.60997 19.3359C7.60997 19.8481 8.025 20.2631 8.53716 20.2631C9.04941 20.2631 9.46444 19.8481 9.46444 19.3359C9.46444 18.8237 9.04941 18.4088 8.53725 18.4088Z" fill="#CA0000"/>
</svg>
