<svg width="24" height="24" viewBox="0 0 24 24" fill="none" xmlns="http://www.w3.org/2000/svg">
<rect x="0.5" y="0.5" width="23" height="23" rx="11.5" fill="black" stroke="#04EE9A"/>
<path fill-rule="evenodd" clip-rule="evenodd" d="M13.1307 14.2496C13.7025 13.7795 14.0807 12.9634 14.0807 12.0353C14.0807 10.5786 13.149 9.39767 11.9996 9.39767C10.8502 9.39767 9.91838 10.5786 9.91838 12.0353C9.91838 12.9633 10.2966 13.7794 10.8683 14.2496C10.76 14.259 10.6646 14.2724 10.5746 14.2913C9.39568 14.5389 8.47457 15.4601 8.22695 16.639C8.16211 16.9477 8.16211 17.3197 8.16211 18.0636V20.0001H15.8364V18.0636C15.8364 17.3197 15.8364 16.9477 15.7716 16.639C15.524 15.4601 14.6029 14.5389 13.4239 14.2913C13.3341 14.2725 13.2389 14.2591 13.1307 14.2496Z" fill="#04EE9A"/>
<path d="M12.0006 4L13.3225 7.09207H10.6787L12.0006 4Z" fill="#04EE9A"/>
<path d="M20 11.8594L16.8669 13.1639L16.8669 10.5549L20 11.8594Z" fill="#04EE9A"/>
<path d="M4 11.8594L7.13314 13.1639L7.13314 10.5549L4 11.8594Z" fill="#04EE9A"/>
<path fill-rule="evenodd" clip-rule="evenodd" d="M15.2402 14.855C15.988 14.0706 16.4447 13.0155 16.4447 11.8592C16.4447 9.45164 14.4643 7.48286 12.0002 7.48286C9.536 7.48286 7.55557 9.45164 7.55557 11.8592C7.55557 13.0153 8.01221 14.0702 8.75978 14.8546C8.5635 15.016 8.38803 15.2016 8.23772 15.407C7.34481 14.485 6.79639 13.2353 6.79639 11.8592C6.79639 9.02295 9.12619 6.72368 12.0002 6.72368C14.8741 6.72368 17.2039 9.02295 17.2039 11.8592C17.2039 13.2356 16.6553 14.4855 15.7621 15.4075C15.6118 15.2021 15.4364 15.0164 15.2402 14.855Z" fill="#04EE9A"/>
</svg>
