<svg width="24" height="24" viewBox="0 0 24 24" fill="none" xmlns="http://www.w3.org/2000/svg">
<rect x="0.5" y="0.5" width="23" height="23" rx="11.5" fill="black" stroke="#04EE9A"/>
<path d="M11.7179 4L9.94043 5.77751L11.7179 10.97L13.495 5.77751L11.7179 4Z" fill="#04EE9A"/>
<path d="M11.7179 20L13.495 18.2225L11.7179 13.03L9.94043 18.2225L11.7179 20Z" fill="#04EE9A"/>
<path d="M19.7176 12L17.9401 10.2225L12.7476 12L17.9401 13.777L19.7176 12Z" fill="#04EE9A"/>
<path d="M3.71777 12L5.49479 13.777L10.6878 12L5.49479 10.2225L3.71777 12Z" fill="#04EE9A"/>
<path d="M15.3279 8.38966H13.7237L12.1821 11.5349L15.3279 9.99387V8.38966Z" fill="#04EE9A"/>
<path d="M8.10742 15.6103H9.71163L11.2527 12.4646L8.10742 14.0061V15.6103Z" fill="#04EE9A"/>
<path d="M15.3279 15.6103V14.0061L12.1821 12.4646L13.7237 15.6103H15.3279Z" fill="#04EE9A"/>
<path d="M8.10742 8.38966V9.99387L11.2527 11.5349L9.71163 8.38966H8.10742Z" fill="#04EE9A"/>
</svg>
