<svg width="24" height="24" viewBox="0 0 24 24" fill="none" xmlns="http://www.w3.org/2000/svg">
<rect x="0.5" y="0.5" width="23" height="23" rx="11.5" fill="black" stroke="#04EE9A"/>
<path d="M17.1865 12.312L14.9153 9.61845L13.8403 10.5956L12.1112 9.14568L14.1813 6.81395L10.4629 4L12.312 6.81395L9.61844 9.08522L10.5956 10.1602L9.14567 11.8892L6.81395 9.81917L4 13.5376L6.81395 11.6885L9.08522 14.382L10.1602 13.4048L11.8892 14.8543L9.81917 17.1861L13.5376 20L11.6885 17.1861L14.382 14.9148L13.4048 13.8398L14.8543 12.1108L17.1861 14.1808L20 10.4624L17.1865 12.312ZM12.0007 13.0228C11.4363 13.0228 10.9787 12.5651 10.9787 12.0007C10.9787 11.4363 11.4363 10.9787 12.0007 10.9787C12.5651 10.9787 13.0228 11.4363 13.0228 12.0007C13.0228 12.5651 12.5651 13.0228 12.0007 13.0228Z" fill="#04EE9A"/>
</svg>
