<svg width="24" height="24" viewBox="0 0 24 24" fill="none" xmlns="http://www.w3.org/2000/svg">
<rect x="0.5" y="0.5" width="23" height="23" rx="11.5" fill="black" stroke="#04EE9A"/>
<path d="M17.0284 9.7635C15.9978 10.5525 14.8457 11.1803 13.6282 11.6299C13.6344 11.5666 13.6359 11.5012 13.638 11.4368C14.325 11.1417 14.9374 10.6869 15.3803 10.0854C16.2208 8.94462 16.3604 7.2842 15.5904 6.09502C14.9168 7.363 14.0273 8.51355 12.9777 9.49363C12.9334 9.44006 12.885 9.38908 12.8371 9.33861C13.4804 8.71852 13.948 7.92333 14.1097 7.04729C14.3667 5.65416 13.7667 4.09984 12.5549 3.36646C12.491 5.13863 12.0528 6.89484 11.29 8.49552C11.1134 8.46205 10.9321 8.44247 10.7456 8.44247C9.14549 8.44247 7.84816 9.7398 7.84816 11.34C7.84816 11.8045 7.96043 12.2423 8.15511 12.6316C7.81726 12.6914 7.50258 12.8155 7.27546 13.0673C6.89228 13.4917 6.91134 14.2184 7.31717 14.6217C7.57159 14.8745 7.93108 14.9914 8.28438 15.0507C8.71699 15.1233 9.15836 15.1212 9.59716 15.1192C10.6123 15.114 11.6274 15.1094 12.6419 15.1042C13.0277 15.1022 13.4299 15.1042 13.774 15.2788C14.118 15.4534 14.3781 15.8577 14.2565 16.2239C14.137 16.5823 13.7281 16.7471 13.3594 16.829C11.7298 17.1901 10.2651 17.0299 9.82428 17.5408C9.66154 17.7293 9.61003 17.9487 9.61003 17.9487C9.61003 17.9487 9.54514 18.2258 9.64969 18.4982C9.8042 18.902 10.2672 19.0658 10.6092 19.1816C11.6547 19.5354 12.6512 19.2862 12.6502 19.21C12.6497 19.1626 12.2655 19.2249 11.854 18.9622C11.7262 18.8803 11.409 18.6779 11.3626 18.321C11.3256 18.0331 11.4857 17.807 11.5135 17.7689C11.7273 17.4774 12.0801 17.4234 12.5961 17.343C13.6292 17.1823 14.1479 17.1015 14.2643 17.0716C14.8982 16.9083 15.4493 16.7569 15.7727 16.261C15.988 15.9308 16.0498 15.5054 15.9381 15.1279C15.7825 14.6036 15.3206 14.2153 14.8133 14.0119C14.477 13.8769 14.1195 13.8115 13.7585 13.7693C14.255 13.7013 14.7381 13.5499 15.1779 13.3058C16.4155 12.6172 17.2333 11.1654 17.0284 9.7635ZM10.7451 12.713C9.98703 12.713 9.3721 12.0981 9.3721 11.34C9.3721 10.5819 9.98703 9.96693 10.7451 9.96693C11.5032 9.96693 12.1182 10.5819 12.1182 11.34C12.1182 12.0981 11.5038 12.713 10.7451 12.713Z" fill="#04EE9A"/>
</svg>
