<svg width="24" height="24" viewBox="0 0 24 24" fill="none" xmlns="http://www.w3.org/2000/svg">
<rect x="0.5" y="0.5" width="23" height="23" rx="11.5" fill="black" stroke="#04EE9A"/>
<path fill-rule="evenodd" clip-rule="evenodd" d="M4 12.3033C5.53636 10.0707 8.3224 8 12 8C15.6776 8 18.6236 10.0707 20 12.3033C18.6396 14.7125 15.6776 16.6065 12 16.6065C8.3224 16.6065 5.63235 14.7446 4 12.3033ZM15.8084 12.3033C15.8084 14.4145 14.1036 16.1259 12.0006 16.1259C9.89766 16.1259 8.19287 14.4145 8.19287 12.3033C8.19287 10.7837 9.0761 9.47125 10.3553 8.85501L11.6237 11.3294L10.0226 11.1412L13.4731 14.6889L12.3998 11.9637L13.7722 12.125L12.1175 8.48248C14.1664 8.54451 15.8084 10.2314 15.8084 12.3033Z" fill="#04EE9A"/>
</svg>
