<svg width="16" height="16" viewBox="0 0 16 16" fill="none" xmlns="http://www.w3.org/2000/svg">
<path d="M7.99712 0C7.50943 3.04231 7.09963 4.85083 5.97523 5.97523C4.85083 7.09963 3.04231 7.50943 0 7.99712C3.04231 8.48481 4.85083 8.89461 5.97523 10.0224C7.09963 11.1468 7.50943 12.9553 7.99712 16C8.48481 12.9553 8.89461 11.1468 10.019 10.019C11.1468 8.89461 12.9553 8.48481 16 7.99712C12.9553 7.50943 11.1468 7.09963 10.0224 5.97523C8.89461 4.85083 8.48481 3.04231 7.99712 0ZM13.6564 2.34464C12.1052 3.46566 10.9131 4.2717 9.84967 4.72214C10.0224 5.04049 10.2222 5.31143 10.4525 5.54173C10.6828 5.77203 10.9537 5.97185 11.2755 6.14796C11.7293 5.08452 12.5354 3.89239 13.6564 2.34464ZM2.34668 2.34668C3.46904 3.89577 4.2717 5.08452 4.72214 6.14457C5.04049 5.97185 5.31143 5.77203 5.54173 5.54173C5.77203 5.31143 5.97185 5.04049 6.14457 4.72214C5.08452 4.2717 3.89577 3.46904 2.34668 2.34668ZM11.2755 9.84628C10.9537 10.0224 10.6828 10.2222 10.4525 10.4525C10.2222 10.6828 10.0224 10.9537 9.84628 11.2755C10.9131 11.7259 12.1052 12.532 13.6564 13.6564C12.532 12.1052 11.7259 10.9131 11.2755 9.84628ZM4.72214 9.84967C4.2717 10.9131 3.46566 12.1052 2.34464 13.6564C3.89239 12.5354 5.08452 11.7293 6.14796 11.2755C5.97185 10.9537 5.77203 10.6828 5.54173 10.4525C5.31143 10.2222 5.04049 10.0224 4.72214 9.84967Z" fill="black"/>
</svg>
