<svg width="24" height="24" viewBox="0 0 24 24" fill="none" xmlns="http://www.w3.org/2000/svg">
<rect x="0.5" y="0.5" width="23" height="23" rx="11.5" fill="black" stroke="#04EE9A"/>
<path d="M12.1736 5.00035C5.92764 5.09129 6.31809 12.0843 8.27217 17.6009C7.82048 17.8905 7.7401 17.7974 7.78749 18.126C7.8215 18.3614 8.17163 18.8409 8.32796 18.9213C8.48428 19.0016 8.61636 19.009 8.85202 18.9934C9.08768 18.9778 10.7088 18.7235 10.3667 18.2971C8.88956 16.223 6.47168 7.05087 12.3217 6.78616C18.1716 7.0509 15.7538 16.223 14.2767 18.2971C13.9346 18.7235 15.5556 18.9777 15.7913 18.9934C16.027 19.009 16.159 19.0016 16.3154 18.9213C16.4717 18.8409 16.8219 18.3614 16.8559 18.126C16.9032 17.7974 16.8229 17.8905 16.3712 17.6009C18.3253 12.0842 18.7157 5.09129 12.4698 5.00035C12.4206 4.99964 12.3716 5.0002 12.3217 5.00035C12.2717 5.00023 12.2228 4.99964 12.1735 5.00035H12.1736ZM10.7696 5.68219C10.982 5.68219 11.1543 5.85439 11.1543 6.06685C11.1543 6.2793 10.982 6.45151 10.7696 6.45151C10.5572 6.45151 10.3849 6.27927 10.3849 6.06685C10.3849 5.85442 10.5571 5.68219 10.7696 5.68219ZM13.8738 5.68219C14.0862 5.68219 14.2585 5.85439 14.2585 6.06685C14.2585 6.2793 14.0862 6.45151 13.8738 6.45151C13.6614 6.45151 13.4891 6.27927 13.4891 6.06685C13.4891 5.85442 13.6614 5.68219 13.8738 5.68219ZM8.61645 7.48624C8.82888 7.48624 9.00111 7.65845 9.00111 7.87091C9.00111 8.08336 8.82888 8.25557 8.61645 8.25557C8.40403 8.25557 8.23179 8.08333 8.23179 7.87091C8.23179 7.65848 8.404 7.48624 8.61645 7.48624ZM16.0269 7.48624C16.2394 7.48624 16.4116 7.65845 16.4116 7.87091C16.4116 8.08336 16.2394 8.25557 16.0269 8.25557C15.8145 8.25557 15.6423 8.08333 15.6423 7.87091C15.6423 7.65848 15.8145 7.48624 16.0269 7.48624ZM7.81537 10.4404C8.02783 10.4404 8.20003 10.6126 8.20003 10.8251C8.20003 11.0376 8.02783 11.2098 7.81537 11.2098C7.60292 11.2098 7.43071 11.0375 7.43071 10.8251C7.43071 10.6127 7.60295 10.4404 7.81537 10.4404ZM16.828 10.4404C17.0404 10.4404 17.2126 10.6126 17.2126 10.8251C17.2126 11.0376 17.0404 11.2098 16.828 11.2098C16.6155 11.2098 16.4433 11.0375 16.4433 10.8251C16.4433 10.6127 16.6155 10.4404 16.828 10.4404ZM8.0818 13.5947C8.2942 13.5947 8.46647 13.7669 8.46647 13.9793C8.46647 14.1918 8.2942 14.364 8.0818 14.364C7.86941 14.364 7.69714 14.1917 7.69714 13.9793C7.69714 13.7669 7.86932 13.5947 8.0818 13.5947ZM16.5616 13.5947C16.7741 13.5947 16.9462 13.7669 16.9462 13.9793C16.9462 14.1918 16.7741 14.364 16.5616 14.364C16.3491 14.364 16.1769 14.1917 16.1769 13.9793C16.1769 13.7669 16.3492 13.5947 16.5616 13.5947ZM8.71646 16.1815C8.92889 16.1815 9.10112 16.3537 9.10112 16.5661C9.10112 16.7786 8.92889 16.9508 8.71646 16.9508C8.50404 16.9508 8.3318 16.7786 8.3318 16.5661C8.3318 16.3537 8.50401 16.1815 8.71646 16.1815ZM15.9269 16.1815C16.1394 16.1815 16.3116 16.3537 16.3116 16.5661C16.3116 16.7786 16.1394 16.9508 15.9269 16.9508C15.7145 16.9508 15.5423 16.7786 15.5423 16.5661C15.5423 16.3537 15.7145 16.1815 15.9269 16.1815Z" fill="#04EE9A"/>
</svg>
