<svg width="24" height="24" viewBox="0 0 24 24" fill="none" xmlns="http://www.w3.org/2000/svg">
<rect x="0.5" y="0.5" width="23" height="23" rx="11.5" fill="black" stroke="#04EE9A"/>
<path d="M5.90825 10.7036C6.04156 10.2683 5.7765 9.81313 5.31621 9.68704C4.85593 9.56094 4.37471 9.81164 4.24139 10.247C4.10808 10.6824 4.37314 11.1375 4.83343 11.2636C5.29371 11.3897 5.77493 11.139 5.90825 10.7036Z" fill="#04EE9A"/>
<path d="M18.4956 13.9126C18.9748 13.9126 19.3633 13.5451 19.3633 13.0919C19.3633 12.6386 18.9748 12.2712 18.4956 12.2712C18.0164 12.2712 17.6279 12.6386 17.6279 13.0919C17.6279 13.5451 18.0164 13.9126 18.4956 13.9126Z" fill="#04EE9A"/>
<path d="M19.4544 11.5075C19.7558 11.5075 20.0002 11.2764 20.0002 10.9913C20.0002 10.7062 19.7558 10.4751 19.4544 10.4751C19.153 10.4751 18.9087 10.7062 18.9087 10.9913C18.9087 11.2764 19.153 11.5075 19.4544 11.5075Z" fill="#04EE9A"/>
<path d="M18.5591 9.65253C18.7722 9.45095 18.7722 9.12413 18.5591 8.92255C18.3459 8.72097 18.0004 8.72096 17.7873 8.92254C17.5741 9.12412 17.5741 9.45095 17.7873 9.65253C18.0004 9.85411 18.3459 9.85411 18.5591 9.65253Z" fill="#04EE9A"/>
<path d="M5.79038 13.4023C6.09178 13.4023 6.33612 13.1712 6.33612 12.8861C6.33612 12.601 6.09178 12.3699 5.79038 12.3699C5.48897 12.3699 5.24463 12.601 5.24463 12.8861C5.24463 13.1712 5.48897 13.4023 5.79038 13.4023Z" fill="#04EE9A"/>
<path d="M12.0518 6.4678C11.3514 6.4678 10.6852 6.60395 10.0799 6.84977L10.6735 7.24857C10.5636 7.52759 10.4542 7.80661 10.3444 8.08563C10.5331 8.4825 10.7223 8.87986 10.911 9.27674C10.4354 8.96261 9.95936 8.64799 9.4838 8.33386C9.51533 8.12555 9.54687 7.91677 9.5784 7.70847C9.35563 7.64449 9.13336 7.58051 8.91059 7.51604C7.7723 8.38437 7.04346 9.71355 7.04346 11.2044C7.04346 12.8953 7.98338 14.3751 9.39275 15.2136V15.9279C9.39275 16.3946 9.79304 16.7732 10.2864 16.7732H13.8167C14.3101 16.7732 14.7103 16.3946 14.7103 15.9279V15.2136C16.1197 14.3756 17.0596 12.8958 17.0596 11.2044C17.0596 8.58834 14.8177 6.4678 12.0518 6.4678ZM9.91816 13.5789C9.16235 13.5789 8.54998 12.9997 8.54998 12.2848C8.54998 11.5705 9.16235 10.9908 9.91816 10.9908C10.6735 10.9908 11.2863 11.57 11.2863 12.2848C11.2863 12.9997 10.674 13.5789 9.91816 13.5789ZM12.4521 14.4213H11.6515C11.4567 14.4213 11.3347 14.2216 11.4323 14.0619L11.8326 13.4062C11.9302 13.2465 12.1739 13.2465 12.2715 13.4062L12.6718 14.0619C12.769 14.2216 12.6469 14.4213 12.4521 14.4213ZM14.1854 13.5789C13.4302 13.5789 12.8173 12.9997 12.8173 12.2848C12.8173 11.5705 13.4296 10.9908 14.1854 10.9908C14.9413 10.9908 15.5536 11.57 15.5536 12.2848C15.5531 12.9997 14.9407 13.5789 14.1854 13.5789Z" fill="#04EE9A"/>
</svg>
