<svg width="24" height="24" viewBox="0 0 24 24" fill="none" xmlns="http://www.w3.org/2000/svg">
<rect x="0.5" y="0.5" width="23" height="23" rx="11.5" fill="black" stroke="#04EE9A"/>
<path d="M7.25669 5L5 7.25916L6.28465 7.96948L5.47346 8.78068L8.70875 10.7334C7.49278 12.8447 7.78511 15.5813 9.58669 17.3838C11.7396 19.539 15.2313 19.5384 17.3846 17.3838C19.538 15.2292 19.5386 11.7358 17.3857 9.58178C15.5843 7.77956 12.8488 7.48785 10.7385 8.7036L8.78692 5.46697L8.53316 5.72076L7.97429 6.27968L7.25669 5ZM8.67655 6.37241L10.5508 9.4808L10.7943 9.32284C12.1235 8.46014 13.7713 8.29818 15.219 8.83892C15.1842 8.83814 15.149 8.83772 15.1137 8.83772C13.9415 8.83772 12.9912 9.28338 12.9912 9.83316C12.9912 10.383 13.9415 10.8287 15.1137 10.8287C16.0617 10.8287 16.8643 10.5372 17.1368 10.1349C17.6161 10.6568 17.9634 11.2553 18.1786 11.8882C17.9453 11.7863 17.629 11.6864 17.2495 11.6004C16.3059 11.3867 14.978 11.2508 13.5121 11.2508C12.0461 11.2508 10.7183 11.3866 9.7747 11.6004C9.36249 11.6937 9.02313 11.8035 8.78572 11.9145C8.91621 11.5233 9.0967 11.145 9.32746 10.7894L9.4857 10.5455L6.37894 8.67034L6.79668 8.25258L8.20791 9.03282L9.04718 8.19263L8.26004 6.789L8.67661 6.37238L8.67655 6.37241ZM8.64387 12.4308C8.65836 12.4392 8.67339 12.4476 8.68915 12.4561C8.92637 12.5831 9.3028 12.7115 9.77464 12.8183C10.7182 13.032 12.0461 13.1679 13.512 13.1679C14.978 13.1679 16.3058 13.0321 17.2494 12.8183C17.7211 12.7115 18.0974 12.5832 18.3346 12.4562C18.3718 12.6319 18.3994 12.8091 18.4172 12.9872C18.1336 13.1159 17.7797 13.2248 17.3626 13.3192C16.3643 13.5454 15.0093 13.6815 13.512 13.6815C12.0147 13.6815 10.6598 13.5454 9.66144 13.3192C9.22036 13.2193 8.84964 13.1034 8.5583 12.9648C8.57709 12.7857 8.6055 12.6074 8.64384 12.4307L8.64387 12.4308Z" fill="#04EE9A"/>
</svg>
