<svg width="24" height="24" viewBox="0 0 24 24" fill="none" xmlns="http://www.w3.org/2000/svg">
<rect x="0.5" y="0.5" width="23" height="23" rx="11.5" fill="black" stroke="#04EE9A"/>
<path d="M14.3667 4.63873C14.3474 4.63817 14.3282 4.64165 14.3104 4.64895C13.4436 5.00967 12.8324 6.44567 13.376 7.04492C14.4235 8.26198 15.6521 8.78157 16.1931 11.0585C16.2746 11.6882 16.2312 12.3114 16.1931 12.9413C15.6521 15.2182 14.4235 15.7378 13.376 16.9549C12.8324 17.5541 13.4436 18.9901 14.3104 19.3508C14.5928 19.4684 15.1862 18.5332 14.9901 18.563C14.4795 18.6409 13.8089 17.9086 14.103 17.659C15.3052 16.6387 17.3996 14.5323 17.2367 13.423C17.1676 12.9524 16.9445 12.4742 16.75 11.9999C16.9445 11.5255 17.1676 11.0473 17.2367 10.5768C17.3996 9.46751 15.3052 7.36111 14.103 6.34076C13.8089 6.09114 14.4795 5.35889 14.9901 5.4367C15.1739 5.46473 14.6639 4.64451 14.3667 4.63873ZM8.75 4.75707L8.07997 6.43214L8.75 7.10217L9.42003 6.43214L8.75 4.75707ZM8.46875 7.61636V16.8834L8.75 16.6022L9.03125 16.8834V7.61636L8.94884 7.69873L8.75 7.89761L8.46875 7.61636ZM13.4688 7.92407V16.0748L14.0312 15.527V8.47189L13.4688 7.92407ZM8.75 17.3976L8.03125 18.1164V19.3209L8.75 18.6022L9.46875 19.3209V18.1164L8.75 17.3976Z" fill="#04EE9A"/>
</svg>
