<svg width="16" height="16" viewBox="0 0 16 16" fill="none" xmlns="http://www.w3.org/2000/svg">
<path d="M9.2125 0.830078L7.4375 1.88633L7.68125 2.29789L8.78125 1.6432L8.4625 3.68727L8.65938 4.01852L10.5 2.92258L10.2563 2.51102L9.09062 3.20289L9.40625 1.15977L9.2125 0.830078ZM4.59688 1.89195C3.50797 2.49774 2.60051 3.38322 1.9682 4.45693C1.33589 5.53065 1.00165 6.7537 1 7.99977C1 9.85628 1.7375 11.6368 3.05025 12.9495C4.36301 14.2623 6.14348 14.9998 8 14.9998C9.51352 14.999 10.986 14.5077 12.1968 13.5995C13.4075 12.6913 14.2913 11.4151 14.7156 9.96227C14.1093 10.6044 13.3784 11.1163 12.5676 11.4666C11.7569 11.8169 10.8832 11.9983 10 11.9998C8.27609 11.9998 6.62279 11.3149 5.40381 10.096C4.18482 8.87697 3.5 7.22367 3.5 5.49977C3.50109 4.2152 3.88278 2.95975 4.59688 1.89195ZM12.2375 3.51852L12.0219 4.03414L13.4 4.60914L11.2656 5.73102L11.0938 6.14352L13.3969 7.10602L13.6125 6.59039L12.1531 5.98102L14.2875 4.85914L14.4594 4.44664L12.2375 3.51852ZM8.64375 5.51852L5.5875 6.61227L5.84062 7.32164L7.73438 6.64352L6.62813 9.70289L6.83125 10.2685L10 9.13727L9.74687 8.42789L7.74062 9.14664L8.84688 6.08727L8.64375 5.51852Z" fill="black"/>
</svg>
