<svg width="24" height="24" viewBox="0 0 24 24" fill="none" xmlns="http://www.w3.org/2000/svg">
<rect x="0.5" y="0.5" width="23" height="23" rx="11.5" fill="black" stroke="#04EE9A"/>
<path fill-rule="evenodd" clip-rule="evenodd" d="M6.30022 7.69978C5.86647 8.79603 6.09295 10.0929 6.97965 10.9796C7.87839 11.8784 9.19857 12.0989 10.3041 11.641L14.1098 15.4468C14.0894 15.9136 14.2574 16.3871 14.6139 16.7436C15.2881 17.4178 16.3813 17.4178 17.0555 16.7436C17.7298 16.0693 17.7298 14.9762 17.0555 14.3019C16.6991 13.9455 16.2256 13.7775 15.7587 13.7979L11.9532 9.99238C12.4115 8.88671 12.1911 7.5661 11.2922 6.66714C10.4056 5.78053 9.10882 5.554 8.01264 5.98757L9.83349 7.80841L8.12117 9.52074L6.30022 7.69978ZM16.3587 16.0466C16.6481 15.7572 16.6481 15.288 16.3587 14.9986C16.0693 14.7092 15.6001 14.7092 15.3107 14.9986C15.0213 15.288 15.0213 15.7572 15.3107 16.0466C15.6001 16.336 16.0693 16.336 16.3587 16.0466Z" fill="#04EE9A"/>
</svg>
