<svg width="24" height="24" viewBox="0 0 24 24" fill="none" xmlns="http://www.w3.org/2000/svg">
<rect x="0.5" y="0.5" width="23" height="23" rx="11.5" fill="black" stroke="#04EE9A"/>
<path d="M15.9327 9.79761V8.06726H14.2024L12 4L9.79761 8.06726H8.06726V9.79761L4 12L8.06726 14.2024V15.9327H9.79761L12 20L14.2024 15.9327H15.9327V14.2024L20 12L15.9327 9.79761ZM11.9995 14.9465C10.3724 14.9465 9.05305 13.6276 9.05305 12C9.05305 10.3729 10.3724 9.05355 11.9995 9.05355C13.6266 9.05355 14.946 10.3724 14.946 12C14.946 13.6276 13.6271 14.9465 11.9995 14.9465Z" fill="#04EE9A"/>
<path d="M11.9998 14.0832C13.1503 14.0832 14.083 13.1505 14.083 12C14.083 10.8494 13.1503 9.91672 11.9998 9.91672C10.8492 9.91672 9.9165 10.8494 9.9165 12C9.9165 13.1505 10.8492 14.0832 11.9998 14.0832Z" fill="#04EE9A"/>
</svg>
