<svg width="24" height="24" viewBox="0 0 24 24" fill="none" xmlns="http://www.w3.org/2000/svg">
<rect x="0.5" y="0.5" width="23" height="23" rx="11.5" fill="black" stroke="#04EE9A"/>
<path d="M16.3578 5.05406C16.1467 5.7138 14.4578 7.26593 13.7017 7.26593C16.0002 7.65746 16.3965 10.8709 16.8525 10.0689C17.3085 9.26693 17.4572 6.52463 16.3578 5.05406Z" fill="#04EE9A"/>
<path d="M7.7296 5.05406C7.94066 5.7138 9.62956 7.26593 10.3857 7.26593C8.10632 7.5497 7.69088 10.8709 7.23492 10.0689C6.77895 9.26693 6.63017 6.52463 7.7296 5.05406Z" fill="#04EE9A"/>
<path fill-rule="evenodd" clip-rule="evenodd" d="M12.0448 19C14.9621 19 17.4441 17.2876 18.366 14.8968C18.0009 15.2621 17.5732 15.5809 17.1151 15.8217C16.0285 16.3928 14.711 16.5509 13.6365 15.7712C13.1751 15.494 12.9475 15.0061 12.8904 14.5472C12.8348 14.0999 12.9337 13.6149 13.2144 13.3158C13.5064 12.8693 14.0625 12.7435 14.5648 12.903C14.9931 13.039 15.383 13.3763 15.601 13.89C15.7421 13.7403 15.8111 13.545 15.8173 13.3289C15.8266 13.0101 15.6959 12.6691 15.4808 12.4313L15.8414 12.1557C16.1292 12.4738 16.2985 12.9168 16.2862 13.3404C16.2736 13.7696 16.0713 14.201 15.5892 14.4409L15.3192 14.5753L15.2492 14.3005C15.1043 13.7315 14.7464 13.4168 14.4116 13.3104C14.0767 13.204 13.766 13.2973 13.6086 13.55L13.5959 13.5704L13.5787 13.5878C13.4097 13.7589 13.3081 14.1102 13.3564 14.4983C13.4039 14.8805 13.5889 15.231 13.9 15.4144L13.9101 15.4204L13.9194 15.4272C14.7917 16.0653 15.8905 15.9688 16.8823 15.4475C17.6261 15.0566 18.5264 14.4414 18.9226 13.7772C18.9736 13.471 19 13.1573 19 12.838C19 9.43477 15.7476 6.23652 12.0448 6.23652C8.34199 6.23652 5 9.43477 5 12.838C5 13.1573 5.02641 13.4711 5.0774 13.7773C5.47358 14.4415 6.46356 15.0566 7.20728 15.4475C8.19909 15.9688 9.29785 16.0653 10.1701 15.4272L10.1795 15.4204L10.1896 15.4144C10.5006 15.231 10.6857 14.8805 10.7332 14.4983C10.7814 14.1102 10.6799 13.7589 10.5108 13.5878L10.4936 13.5704L10.4809 13.55C10.3235 13.2973 10.0129 13.204 9.67799 13.3104C9.34311 13.4168 8.98526 13.7315 8.84037 14.3005L8.77038 14.5753L8.50038 14.4409C8.01825 14.201 7.81589 13.7696 7.80337 13.3404C7.79108 12.9168 7.96039 12.4738 8.2481 12.1557L8.60878 12.4313C8.39367 12.6691 8.26298 13.0101 8.27222 13.3289C8.27855 13.545 8.34748 13.7403 8.48855 13.89C8.70656 13.3763 9.09655 13.039 9.52479 12.903C10.0271 12.7435 10.5832 12.8693 10.8751 13.3158C11.1559 13.6149 11.2547 14.0999 11.1991 14.5472C11.1421 15.0061 10.9145 15.494 10.453 15.7712C9.37853 16.5509 8.061 16.3928 6.97446 15.8217C6.51638 15.5809 6.08875 15.2622 5.72372 14.8969C6.64561 17.2877 9.12762 19 12.0448 19ZM12.9408 8.89596L15.0048 8.2623V8.28798C15.0052 8.62586 15.006 9.35185 14.4888 9.56309C13.7383 9.86968 12.9408 8.89596 12.9408 8.89596ZM9.08472 8.2623L11.1487 8.89596C11.1487 8.89596 10.3512 9.86968 9.60066 9.56309C9.0835 9.35185 9.08434 8.626 9.08472 8.28819V8.2623ZM11.6421 11.4864C11.311 11.5564 11.0048 11.6729 10.7298 11.8266C10.6688 10.7116 11.0421 9.82323 11.7076 9.68243C12.4847 9.51805 13.3884 10.4306 13.8205 11.765C13.1804 11.4407 12.4119 11.3235 11.6421 11.4864Z" fill="#04EE9A"/>
</svg>
