<svg width="32" height="32" viewBox="0 0 32 32" fill="none" xmlns="http://www.w3.org/2000/svg">
<path d="M5 8.00005H3C2.73478 8.00005 2.48043 7.89469 2.29289 7.70715C2.10536 7.51962 2 7.26526 2 7.00005C2 6.73483 2.10536 6.48048 2.29289 6.29294C2.48043 6.1054 2.73478 6.00005 3 6.00005H11V2.99805C11 2.73283 11.1054 2.47848 11.2929 2.29094C11.4804 2.1034 11.7348 1.99805 12 1.99805H20C20.2652 1.99805 20.5196 2.1034 20.7071 2.29094C20.8946 2.47848 21 2.73283 21 2.99805V6.00005H29C29.2652 6.00005 29.5196 6.1054 29.7071 6.29294C29.8946 6.48048 30 6.73483 30 7.00005C30 7.26526 29.8946 7.51962 29.7071 7.70715C29.5196 7.89469 29.2652 8.00005 29 8.00005H27V29C27 29.2653 26.8946 29.5196 26.7071 29.7072C26.5196 29.8947 26.2652 30 26 30H6C5.73478 30 5.48043 29.8947 5.29289 29.7072C5.10536 29.5196 5 29.2653 5 29V8.00005ZM19 6.00005V4.00005H13V6.00005H19ZM7 28H25V8.00005H7V28ZM13 24C12.7348 24 12.4804 23.8947 12.2929 23.7072C12.1054 23.5196 12 23.2653 12 23V13C12 12.7348 12.1054 12.4805 12.2929 12.2929C12.4804 12.1054 12.7348 12 13 12C13.2652 12 13.5196 12.1054 13.7071 12.2929C13.8946 12.4805 14 12.7348 14 13V23C14 23.2653 13.8946 23.5196 13.7071 23.7072C13.5196 23.8947 13.2652 24 13 24ZM19 24C18.7348 24 18.4804 23.8947 18.2929 23.7072C18.1054 23.5196 18 23.2653 18 23V13C18 12.7348 18.1054 12.4805 18.2929 12.2929C18.4804 12.1054 18.7348 12 19 12C19.2652 12 19.5196 12.1054 19.7071 12.2929C19.8946 12.4805 20 12.7348 20 13V23C20 23.2653 19.8946 23.5196 19.7071 23.7072C19.5196 23.8947 19.2652 24 19 24Z" fill="#FF6B6B" stroke="#191919"/>
</svg>
