<svg width="24" height="24" viewBox="0 0 24 24" fill="none" xmlns="http://www.w3.org/2000/svg">
<rect x="0.5" y="0.5" width="23" height="23" rx="11.5" fill="black" stroke="#04EE9A"/>
<path fill-rule="evenodd" clip-rule="evenodd" d="M18.5358 8.61332C18.5358 9.50433 16.7319 10.2266 14.5068 10.2266C12.2816 10.2266 10.4777 9.50433 10.4777 8.61332C10.4777 7.72231 12.2816 7 14.5068 7C16.7319 7 18.5358 7.72231 18.5358 8.61332ZM18.6262 9.53963C18.6262 9.53921 18.6261 9.53864 18.6261 9.53791C18.6261 9.49713 18.5931 9.46407 18.5523 9.46407C18.5324 9.46407 18.5144 9.47191 18.5012 9.48465C18.0495 10.1015 16.4325 10.558 14.507 10.558C13.3192 10.558 12.2488 10.3843 11.4969 10.1064C11.8849 10.6652 12.1285 11.3593 12.1732 12.1099C12.8367 12.2678 13.6406 12.3602 14.507 12.3602C16.7823 12.3602 18.6268 11.7228 18.6268 10.9365V9.5405C18.6265 9.5406 18.6263 9.54032 18.6262 9.53963ZM11.8938 13.9205C12.0686 13.4536 12.1594 12.9851 12.1774 12.5312C12.8384 12.6668 13.6104 12.7447 14.435 12.7447C16.4085 12.7447 18.1747 12.2985 18.7827 11.6821C18.8055 11.664 18.8344 11.6531 18.8658 11.6531C18.9395 11.6531 18.9993 11.7129 18.9993 11.7867L18.9995 11.7897L18.9999 11.7913L18.9998 12.6782L19 12.6945C19 13.6714 17.338 14.3078 14.971 14.3078C13.7962 14.3078 12.6622 14.202 11.8938 13.9205ZM10.8086 15.6392C11.1484 15.2884 11.4472 14.8719 11.6881 14.3914C11.7117 14.3444 11.7343 14.2973 11.7561 14.2502C12.5054 14.5612 13.6142 14.7634 15.0486 14.7033C16.4644 14.7033 17.725 14.4013 18.5355 13.9829V14.833H18.5351L18.5353 14.8495C18.5353 15.9887 17.3422 16.4628 14.5063 16.4628C12.3281 16.3171 11.2761 16.0533 10.8086 15.6392ZM13.3907 8.17286L13.981 8.99971L15.3252 9.01363L15.7186 8.17286L14.9368 8.38131L14.5484 7.82257L14.1894 8.37399L13.3907 8.17286ZM10.2563 13.2026C10.9517 11.2489 10.1941 9.3687 8.90764 8.91077C7.62118 8.45285 6.01453 9.66545 5.31908 11.6192C4.62364 13.5729 5.10275 15.528 6.38922 15.9859C7.67568 16.4438 9.56083 15.1564 10.2563 13.2026ZM6.56736 12.6278L7.05861 11.2452L7.33679 12.0812L8.33156 11.2449L8.09547 12.6107L8.95664 12.4733L7.88413 13.6699L6.56736 12.6278ZM7.28884 16.3874C8.84456 16.6141 10.5529 15.8153 11.4196 14.0866C12.375 12.1809 11.6688 10.1408 10.2767 9.38411C10.1125 9.30182 9.94151 9.24228 9.76593 9.20433C10.8442 10.1372 11.2439 12.048 10.3483 13.8343C9.68053 15.1661 8.45779 16.0997 7.28884 16.3874Z" fill="#04EE9A"/>
</svg>
