<svg width="24" height="24" viewBox="0 0 24 24" fill="none" xmlns="http://www.w3.org/2000/svg">
<rect x="0.5" y="0.5" width="23" height="23" rx="11.5" fill="black" stroke="#04EE9A"/>
<g clip-path="url(#clip0_655_155)">
<path d="M12.7857 5.79873C12.7219 5.79832 12.6578 5.79876 12.5934 5.80007C11.6917 5.81823 10.7399 6.00504 9.905 6.38063C8.95084 6.80988 8.15345 7.47884 7.71808 8.42245C7.30792 9.31145 7.21605 10.462 7.6495 11.9302C7.77068 11.8748 7.89382 11.8239 8.0187 11.7774C7.74892 10.5753 7.86511 9.58319 8.24568 8.79665C8.66852 7.92279 9.4068 7.31598 10.2404 6.92901C11.0739 6.54202 12.0063 6.36863 12.8582 6.35616C12.9115 6.3554 12.9644 6.35521 13.0169 6.35564C13.6417 6.36073 14.215 6.45118 14.6744 6.6246C14.869 6.53272 15.0465 6.43609 15.1915 6.32786C14.6324 6.02405 13.8413 5.83146 12.9763 5.80253C12.9128 5.8004 12.8493 5.79915 12.7857 5.79873ZM13.0125 6.84799C12.9638 6.84747 12.9148 6.84758 12.8654 6.84832C12.0757 6.85983 11.2043 7.02414 10.4477 7.37543C9.69104 7.72671 9.05278 8.25871 8.68873 9.01108C8.36465 9.68086 8.2498 10.5361 8.4907 11.6332C8.829 11.5538 9.14004 11.5377 9.4085 11.6005C9.68002 11.6641 9.92573 11.8506 10.0027 12.1286C10.0111 12.1588 10.0169 12.1897 10.0219 12.2208L12.8165 9.42621C12.4923 8.90695 12.3837 8.47508 12.4824 8.10233C12.5919 7.68876 12.932 7.42864 13.3041 7.23288C13.5074 7.12592 13.7275 7.03021 13.9479 6.93757C13.6651 6.8836 13.3476 6.85144 13.0125 6.84799ZM15.2836 8.71628L13.9572 8.98155L13.0209 9.91785H14.082V10.9789L15.0183 10.0426L15.2836 8.71628ZM17.672 8.80835C17.5639 8.9533 17.4672 9.13068 17.3754 9.32528C17.5634 9.8233 17.6537 10.4555 17.6437 11.1416C17.6313 11.9935 17.4579 12.9259 17.0709 13.7595C16.6839 14.5931 16.0771 15.3314 15.2032 15.7542C14.4167 16.1348 13.4246 16.251 12.2225 15.9812C12.176 16.106 12.125 16.2292 12.0696 16.3504C13.5378 16.7838 14.6884 16.692 15.5774 16.2818C16.5211 15.8464 17.19 15.049 17.6192 14.0949C18.0485 13.1407 18.2312 12.0338 18.1974 11.0236C18.1684 10.1586 17.9759 9.36745 17.672 8.80835ZM17.0623 10.0519C16.9696 10.2723 16.8739 10.4925 16.767 10.6958C16.5712 11.0679 16.3111 11.4079 15.8976 11.5175C15.5248 11.6162 15.093 11.5076 14.5737 11.1834L11.7791 13.978C11.8102 13.9829 11.8411 13.9888 11.8713 13.9972C12.1492 14.0742 12.3358 14.3199 12.3994 14.5914C12.4622 14.8598 12.4461 15.1709 12.3667 15.5092C13.4638 15.7501 14.319 15.6352 14.9888 15.3112C15.7412 14.9471 16.2732 14.3088 16.6245 13.5522C16.9757 12.7956 17.14 11.9241 17.1516 11.1345C17.1572 10.7454 17.1241 10.3759 17.0623 10.0519ZM12.6729 10.41V11.327H13.5898V10.41H12.6729ZM12.1807 10.758L11.2444 11.6944L10.9791 13.0207L12.3055 12.7555L13.2418 11.8192H12.1807V10.758ZM10.6169 12.3218L9.60428 13.3345L10.6654 14.3956L11.6781 13.3829L10.3517 13.6482L10.6169 12.3218ZM9.2563 13.6825L8.54741 14.3913L9.6086 15.4525L10.3174 14.7436L9.2563 13.6825ZM8.19944 14.7393L5.4375 17.5013V18.5624H6.49863L9.26054 15.8004L8.19944 14.7393Z" fill="#04EE9A"/>
</g>
<defs>
<clipPath id="clip0_655_155">
<rect width="14" height="14" fill="white" transform="translate(5 5)"/>
</clipPath>
</defs>
</svg>
